<mxfile host="app.diagrams.net" modified="2023-11-05T14:24:10.489Z" agent="Mozilla/5.0 (Windows NT 10.0; Win64; x64) AppleWebKit/537.36 (KHTML, like Gecko) Chrome/118.0.0.0 Safari/537.36" etag="fvSUMDnnxzblf-IAGkio" version="22.0.8" type="github">
  <diagram name="PÃ¡gina-1" id="UbzmUX1tlNmOz0QZwJzA">
    <mxGraphModel dx="1744" dy="963" grid="1" gridSize="10" guides="1" tooltips="1" connect="1" arrows="1" fold="1" page="1" pageScale="1" pageWidth="2339" pageHeight="3300" math="0" shadow="0">
      <root>
        <mxCell id="0" />
        <mxCell id="1" parent="0" />
        <mxCell id="i0ZZUqnmRl0zCU0rfzQK-1" value="CCAA" style="whiteSpace=wrap;html=1;align=center;" vertex="1" parent="1">
          <mxGeometry x="220" y="130" width="100" height="40" as="geometry" />
        </mxCell>
        <mxCell id="i0ZZUqnmRl0zCU0rfzQK-2" value="" style="edgeStyle=orthogonalEdgeStyle;rounded=0;orthogonalLoop=1;jettySize=auto;html=1;" edge="1" parent="1" source="i0ZZUqnmRl0zCU0rfzQK-4" target="i0ZZUqnmRl0zCU0rfzQK-1">
          <mxGeometry relative="1" as="geometry" />
        </mxCell>
        <mxCell id="i0ZZUqnmRl0zCU0rfzQK-3" value="" style="edgeStyle=orthogonalEdgeStyle;rounded=0;orthogonalLoop=1;jettySize=auto;html=1;" edge="1" parent="1" source="i0ZZUqnmRl0zCU0rfzQK-4">
          <mxGeometry relative="1" as="geometry">
            <mxPoint x="270.0000000000002" y="350" as="targetPoint" />
          </mxGeometry>
        </mxCell>
        <mxCell id="i0ZZUqnmRl0zCU0rfzQK-4" value="Tiene" style="rhombus;whiteSpace=wrap;html=1;" vertex="1" parent="1">
          <mxGeometry x="230" y="240" width="80" height="40" as="geometry" />
        </mxCell>
        <mxCell id="i0ZZUqnmRl0zCU0rfzQK-5" value="Parques naturales" style="whiteSpace=wrap;html=1;align=center;" vertex="1" parent="1">
          <mxGeometry x="220" y="350" width="100" height="40" as="geometry" />
        </mxCell>
        <mxCell id="i0ZZUqnmRl0zCU0rfzQK-6" value="" style="edgeStyle=orthogonalEdgeStyle;rounded=0;orthogonalLoop=1;jettySize=auto;html=1;" edge="1" parent="1" source="i0ZZUqnmRl0zCU0rfzQK-8" target="i0ZZUqnmRl0zCU0rfzQK-5">
          <mxGeometry relative="1" as="geometry" />
        </mxCell>
        <mxCell id="i0ZZUqnmRl0zCU0rfzQK-7" value="" style="edgeStyle=orthogonalEdgeStyle;rounded=0;orthogonalLoop=1;jettySize=auto;html=1;" edge="1" parent="1" source="i0ZZUqnmRl0zCU0rfzQK-8" target="i0ZZUqnmRl0zCU0rfzQK-9">
          <mxGeometry relative="1" as="geometry" />
        </mxCell>
        <mxCell id="i0ZZUqnmRl0zCU0rfzQK-8" value="Compuesto" style="rhombus;whiteSpace=wrap;html=1;" vertex="1" parent="1">
          <mxGeometry x="230" y="460" width="80" height="40" as="geometry" />
        </mxCell>
        <mxCell id="i0ZZUqnmRl0zCU0rfzQK-9" value="Areas" style="whiteSpace=wrap;html=1;align=center;" vertex="1" parent="1">
          <mxGeometry x="220" y="570" width="100" height="40" as="geometry" />
        </mxCell>
        <mxCell id="i0ZZUqnmRl0zCU0rfzQK-10" value="" style="edgeStyle=orthogonalEdgeStyle;rounded=0;orthogonalLoop=1;jettySize=auto;html=1;" edge="1" parent="1" source="i0ZZUqnmRl0zCU0rfzQK-12" target="i0ZZUqnmRl0zCU0rfzQK-9">
          <mxGeometry relative="1" as="geometry" />
        </mxCell>
        <mxCell id="i0ZZUqnmRl0zCU0rfzQK-11" value="" style="edgeStyle=orthogonalEdgeStyle;rounded=0;orthogonalLoop=1;jettySize=auto;html=1;" edge="1" parent="1" source="i0ZZUqnmRl0zCU0rfzQK-12" target="i0ZZUqnmRl0zCU0rfzQK-14">
          <mxGeometry relative="1" as="geometry" />
        </mxCell>
        <mxCell id="i0ZZUqnmRl0zCU0rfzQK-12" value="Residen" style="rhombus;whiteSpace=wrap;html=1;" vertex="1" parent="1">
          <mxGeometry x="393" y="570" width="80" height="40" as="geometry" />
        </mxCell>
        <mxCell id="i0ZZUqnmRl0zCU0rfzQK-13" style="edgeStyle=orthogonalEdgeStyle;rounded=0;orthogonalLoop=1;jettySize=auto;html=1;entryX=0.5;entryY=0;entryDx=0;entryDy=0;endArrow=none;endFill=0;" edge="1" parent="1" source="i0ZZUqnmRl0zCU0rfzQK-14" target="i0ZZUqnmRl0zCU0rfzQK-16">
          <mxGeometry relative="1" as="geometry" />
        </mxCell>
        <mxCell id="i0ZZUqnmRl0zCU0rfzQK-14" value="Especies" style="whiteSpace=wrap;html=1;align=center;" vertex="1" parent="1">
          <mxGeometry x="543" y="570" width="100" height="40" as="geometry" />
        </mxCell>
        <mxCell id="i0ZZUqnmRl0zCU0rfzQK-15" style="edgeStyle=orthogonalEdgeStyle;rounded=0;orthogonalLoop=1;jettySize=auto;html=1;entryX=0;entryY=0.5;entryDx=0;entryDy=0;endArrow=none;endFill=0;" edge="1" parent="1" source="i0ZZUqnmRl0zCU0rfzQK-16" target="i0ZZUqnmRl0zCU0rfzQK-17">
          <mxGeometry relative="1" as="geometry" />
        </mxCell>
        <mxCell id="i0ZZUqnmRl0zCU0rfzQK-16" value="" style="ellipse;whiteSpace=wrap;html=1;aspect=fixed;" vertex="1" parent="1">
          <mxGeometry x="583" y="630" width="20" height="20" as="geometry" />
        </mxCell>
        <mxCell id="i0ZZUqnmRl0zCU0rfzQK-17" value="" style="triangle;whiteSpace=wrap;html=1;rotation=90;" vertex="1" parent="1">
          <mxGeometry x="573" y="650" width="40" height="60" as="geometry" />
        </mxCell>
        <mxCell id="i0ZZUqnmRl0zCU0rfzQK-18" value="" style="curved=1;endArrow=none;html=1;rounded=0;endFill=0;" edge="1" parent="1">
          <mxGeometry width="50" height="50" relative="1" as="geometry">
            <mxPoint x="633" y="680" as="sourcePoint" />
            <mxPoint x="553" y="680" as="targetPoint" />
            <Array as="points">
              <mxPoint x="623" y="700" />
              <mxPoint x="563" y="700" />
            </Array>
          </mxGeometry>
        </mxCell>
        <mxCell id="i0ZZUqnmRl0zCU0rfzQK-19" value="Vegetales" style="whiteSpace=wrap;html=1;align=center;" vertex="1" parent="1">
          <mxGeometry x="410" y="710" width="100" height="40" as="geometry" />
        </mxCell>
        <mxCell id="i0ZZUqnmRl0zCU0rfzQK-20" value="Animales" style="whiteSpace=wrap;html=1;align=center;" vertex="1" parent="1">
          <mxGeometry x="543" y="760" width="100" height="40" as="geometry" />
        </mxCell>
        <mxCell id="i0ZZUqnmRl0zCU0rfzQK-21" value="Minerales" style="whiteSpace=wrap;html=1;align=center;" vertex="1" parent="1">
          <mxGeometry x="670" y="710" width="100" height="40" as="geometry" />
        </mxCell>
        <mxCell id="i0ZZUqnmRl0zCU0rfzQK-22" value="" style="endArrow=none;html=1;rounded=0;exitX=0.5;exitY=0;exitDx=0;exitDy=0;entryX=0;entryY=0;entryDx=0;entryDy=0;" edge="1" parent="1">
          <mxGeometry relative="1" as="geometry">
            <mxPoint x="608" y="680" as="sourcePoint" />
            <mxPoint x="670" y="710" as="targetPoint" />
          </mxGeometry>
        </mxCell>
        <mxCell id="i0ZZUqnmRl0zCU0rfzQK-23" value="" style="endArrow=none;html=1;rounded=0;entryX=0.5;entryY=0;entryDx=0;entryDy=0;" edge="1" parent="1" target="i0ZZUqnmRl0zCU0rfzQK-20">
          <mxGeometry relative="1" as="geometry">
            <mxPoint x="593" y="700" as="sourcePoint" />
            <mxPoint x="680" y="720" as="targetPoint" />
          </mxGeometry>
        </mxCell>
        <mxCell id="i0ZZUqnmRl0zCU0rfzQK-24" value="" style="endArrow=none;html=1;rounded=0;entryX=1;entryY=0;entryDx=0;entryDy=0;exitX=0.5;exitY=1;exitDx=0;exitDy=0;" edge="1" parent="1" source="i0ZZUqnmRl0zCU0rfzQK-17" target="i0ZZUqnmRl0zCU0rfzQK-19">
          <mxGeometry relative="1" as="geometry">
            <mxPoint x="603" y="710" as="sourcePoint" />
            <mxPoint x="603" y="770" as="targetPoint" />
          </mxGeometry>
        </mxCell>
        <mxCell id="i0ZZUqnmRl0zCU0rfzQK-25" style="edgeStyle=orthogonalEdgeStyle;rounded=0;orthogonalLoop=1;jettySize=auto;html=1;entryX=0;entryY=0.5;entryDx=0;entryDy=0;" edge="1" parent="1" source="i0ZZUqnmRl0zCU0rfzQK-27" target="i0ZZUqnmRl0zCU0rfzQK-28">
          <mxGeometry relative="1" as="geometry">
            <Array as="points">
              <mxPoint x="433" y="150" />
            </Array>
          </mxGeometry>
        </mxCell>
        <mxCell id="i0ZZUqnmRl0zCU0rfzQK-26" style="edgeStyle=orthogonalEdgeStyle;rounded=0;orthogonalLoop=1;jettySize=auto;html=1;entryX=1;entryY=0.25;entryDx=0;entryDy=0;" edge="1" parent="1" source="i0ZZUqnmRl0zCU0rfzQK-27" target="i0ZZUqnmRl0zCU0rfzQK-5">
          <mxGeometry relative="1" as="geometry" />
        </mxCell>
        <mxCell id="i0ZZUqnmRl0zCU0rfzQK-27" value="Trabaja" style="rhombus;whiteSpace=wrap;html=1;" vertex="1" parent="1">
          <mxGeometry x="413" y="130" width="80" height="40" as="geometry" />
        </mxCell>
        <mxCell id="i0ZZUqnmRl0zCU0rfzQK-28" value="Personal" style="whiteSpace=wrap;html=1;align=center;" vertex="1" parent="1">
          <mxGeometry x="630" y="130" width="100" height="40" as="geometry" />
        </mxCell>
        <mxCell id="i0ZZUqnmRl0zCU0rfzQK-29" style="edgeStyle=orthogonalEdgeStyle;rounded=0;orthogonalLoop=1;jettySize=auto;html=1;entryX=0.5;entryY=0;entryDx=0;entryDy=0;endArrow=none;endFill=0;" edge="1" parent="1" target="i0ZZUqnmRl0zCU0rfzQK-30">
          <mxGeometry relative="1" as="geometry">
            <mxPoint x="680" y="170" as="sourcePoint" />
          </mxGeometry>
        </mxCell>
        <mxCell id="i0ZZUqnmRl0zCU0rfzQK-30" value="" style="ellipse;whiteSpace=wrap;html=1;aspect=fixed;" vertex="1" parent="1">
          <mxGeometry x="670" y="190" width="20" height="20" as="geometry" />
        </mxCell>
        <mxCell id="i0ZZUqnmRl0zCU0rfzQK-31" value="" style="curved=1;endArrow=none;html=1;rounded=0;endFill=0;" edge="1" parent="1">
          <mxGeometry width="50" height="50" relative="1" as="geometry">
            <mxPoint x="720" y="240" as="sourcePoint" />
            <mxPoint x="640" y="240" as="targetPoint" />
            <Array as="points">
              <mxPoint x="710" y="260" />
              <mxPoint x="650" y="260" />
            </Array>
          </mxGeometry>
        </mxCell>
        <mxCell id="i0ZZUqnmRl0zCU0rfzQK-32" style="edgeStyle=orthogonalEdgeStyle;rounded=0;orthogonalLoop=1;jettySize=auto;html=1;entryX=0;entryY=0.5;entryDx=0;entryDy=0;endArrow=none;endFill=0;exitX=0.5;exitY=1;exitDx=0;exitDy=0;" edge="1" parent="1" source="i0ZZUqnmRl0zCU0rfzQK-30" target="i0ZZUqnmRl0zCU0rfzQK-103">
          <mxGeometry relative="1" as="geometry">
            <mxPoint x="690" y="180" as="sourcePoint" />
            <mxPoint x="690" y="200" as="targetPoint" />
            <Array as="points">
              <mxPoint x="680" y="210" />
              <mxPoint x="680" y="210" />
            </Array>
          </mxGeometry>
        </mxCell>
        <mxCell id="i0ZZUqnmRl0zCU0rfzQK-33" value="GestiÃ³n" style="whiteSpace=wrap;html=1;align=center;" vertex="1" parent="1">
          <mxGeometry x="483" y="230" width="100" height="40" as="geometry" />
        </mxCell>
        <mxCell id="i0ZZUqnmRl0zCU0rfzQK-34" value="Vigilancia" style="whiteSpace=wrap;html=1;align=center;" vertex="1" parent="1">
          <mxGeometry x="573" y="300" width="100" height="40" as="geometry" />
        </mxCell>
        <mxCell id="i0ZZUqnmRl0zCU0rfzQK-35" value="ConservaciÃ³n" style="whiteSpace=wrap;html=1;align=center;" vertex="1" parent="1">
          <mxGeometry x="690" y="300" width="100" height="40" as="geometry" />
        </mxCell>
        <mxCell id="i0ZZUqnmRl0zCU0rfzQK-36" value="InvestigaciÃ³n" style="whiteSpace=wrap;html=1;align=center;" vertex="1" parent="1">
          <mxGeometry x="767" y="230" width="100" height="40" as="geometry" />
        </mxCell>
        <mxCell id="i0ZZUqnmRl0zCU0rfzQK-37" value="" style="endArrow=none;html=1;rounded=0;exitX=0.5;exitY=0;exitDx=0;exitDy=0;entryX=0;entryY=0.5;entryDx=0;entryDy=0;" edge="1" parent="1" source="i0ZZUqnmRl0zCU0rfzQK-103" target="i0ZZUqnmRl0zCU0rfzQK-36">
          <mxGeometry relative="1" as="geometry">
            <mxPoint x="840" y="300" as="sourcePoint" />
            <mxPoint x="902" y="330" as="targetPoint" />
          </mxGeometry>
        </mxCell>
        <mxCell id="i0ZZUqnmRl0zCU0rfzQK-38" value="" style="endArrow=none;html=1;rounded=0;exitX=0.743;exitY=0.37;exitDx=0;exitDy=0;entryX=0.5;entryY=0;entryDx=0;entryDy=0;exitPerimeter=0;" edge="1" parent="1" source="i0ZZUqnmRl0zCU0rfzQK-103" target="i0ZZUqnmRl0zCU0rfzQK-35">
          <mxGeometry relative="1" as="geometry">
            <mxPoint x="705" y="250" as="sourcePoint" />
            <mxPoint x="777" y="260" as="targetPoint" />
          </mxGeometry>
        </mxCell>
        <mxCell id="i0ZZUqnmRl0zCU0rfzQK-39" value="" style="endArrow=none;html=1;rounded=0;exitX=0.75;exitY=0.631;exitDx=0;exitDy=0;entryX=0.5;entryY=0;entryDx=0;entryDy=0;exitPerimeter=0;" edge="1" parent="1" source="i0ZZUqnmRl0zCU0rfzQK-103" target="i0ZZUqnmRl0zCU0rfzQK-34">
          <mxGeometry relative="1" as="geometry">
            <mxPoint x="698" y="263" as="sourcePoint" />
            <mxPoint x="750" y="310" as="targetPoint" />
          </mxGeometry>
        </mxCell>
        <mxCell id="i0ZZUqnmRl0zCU0rfzQK-40" value="" style="endArrow=none;html=1;rounded=0;exitX=0.5;exitY=1;exitDx=0;exitDy=0;entryX=1;entryY=0.5;entryDx=0;entryDy=0;" edge="1" parent="1" source="i0ZZUqnmRl0zCU0rfzQK-103" target="i0ZZUqnmRl0zCU0rfzQK-33">
          <mxGeometry relative="1" as="geometry">
            <mxPoint x="705" y="250" as="sourcePoint" />
            <mxPoint x="777" y="260" as="targetPoint" />
          </mxGeometry>
        </mxCell>
        <mxCell id="i0ZZUqnmRl0zCU0rfzQK-41" value="Vigila" style="rhombus;whiteSpace=wrap;html=1;" vertex="1" parent="1">
          <mxGeometry x="450" y="440" width="80" height="40" as="geometry" />
        </mxCell>
        <mxCell id="i0ZZUqnmRl0zCU0rfzQK-42" value="" style="endArrow=none;html=1;rounded=0;exitX=0;exitY=1;exitDx=0;exitDy=0;entryX=1;entryY=0;entryDx=0;entryDy=0;" edge="1" parent="1" source="i0ZZUqnmRl0zCU0rfzQK-41" target="i0ZZUqnmRl0zCU0rfzQK-9">
          <mxGeometry relative="1" as="geometry">
            <mxPoint x="682" y="260" as="sourcePoint" />
            <mxPoint x="633" y="310" as="targetPoint" />
          </mxGeometry>
        </mxCell>
        <mxCell id="i0ZZUqnmRl0zCU0rfzQK-43" value="" style="endArrow=none;html=1;rounded=0;exitX=0.666;exitY=0.188;exitDx=0;exitDy=0;entryX=0.5;entryY=1;entryDx=0;entryDy=0;exitPerimeter=0;" edge="1" parent="1" source="i0ZZUqnmRl0zCU0rfzQK-41" target="i0ZZUqnmRl0zCU0rfzQK-34">
          <mxGeometry relative="1" as="geometry">
            <mxPoint x="480" y="480" as="sourcePoint" />
            <mxPoint x="330" y="580" as="targetPoint" />
          </mxGeometry>
        </mxCell>
        <mxCell id="i0ZZUqnmRl0zCU0rfzQK-44" value="(1, 1)" style="text;strokeColor=none;fillColor=none;spacingLeft=4;spacingRight=4;overflow=hidden;rotatable=0;points=[[0,0.5],[1,0.5]];portConstraint=eastwest;fontSize=12;whiteSpace=wrap;html=1;" vertex="1" parent="1">
          <mxGeometry x="310" y="530" width="40" height="30" as="geometry" />
        </mxCell>
        <mxCell id="i0ZZUqnmRl0zCU0rfzQK-45" value="(1, n)" style="text;strokeColor=none;fillColor=none;spacingLeft=4;spacingRight=4;overflow=hidden;rotatable=0;points=[[0,0.5],[1,0.5]];portConstraint=eastwest;fontSize=12;whiteSpace=wrap;html=1;" vertex="1" parent="1">
          <mxGeometry x="563" y="340" width="40" height="30" as="geometry" />
        </mxCell>
        <mxCell id="i0ZZUqnmRl0zCU0rfzQK-46" value="1 : N" style="text;strokeColor=none;fillColor=none;spacingLeft=4;spacingRight=4;overflow=hidden;rotatable=0;points=[[0,0.5],[1,0.5]];portConstraint=eastwest;fontSize=12;whiteSpace=wrap;html=1;" vertex="1" parent="1">
          <mxGeometry x="443" y="420" width="40" height="30" as="geometry" />
        </mxCell>
        <mxCell id="i0ZZUqnmRl0zCU0rfzQK-47" value="Mantienen" style="rhombus;whiteSpace=wrap;html=1;" vertex="1" parent="1">
          <mxGeometry x="566" y="440" width="74" height="40" as="geometry" />
        </mxCell>
        <mxCell id="i0ZZUqnmRl0zCU0rfzQK-48" value="" style="endArrow=none;html=1;rounded=0;exitX=1;exitY=0;exitDx=0;exitDy=0;entryX=0.5;entryY=1;entryDx=0;entryDy=0;" edge="1" parent="1" source="i0ZZUqnmRl0zCU0rfzQK-47" target="i0ZZUqnmRl0zCU0rfzQK-35">
          <mxGeometry relative="1" as="geometry">
            <mxPoint x="513" y="458" as="sourcePoint" />
            <mxPoint x="633" y="350" as="targetPoint" />
          </mxGeometry>
        </mxCell>
        <mxCell id="i0ZZUqnmRl0zCU0rfzQK-49" value="" style="endArrow=none;html=1;rounded=0;exitX=1;exitY=0.25;exitDx=0;exitDy=0;entryX=0;entryY=1;entryDx=0;entryDy=0;" edge="1" parent="1" source="i0ZZUqnmRl0zCU0rfzQK-9" target="i0ZZUqnmRl0zCU0rfzQK-47">
          <mxGeometry relative="1" as="geometry">
            <mxPoint x="632" y="460" as="sourcePoint" />
            <mxPoint x="750" y="350" as="targetPoint" />
          </mxGeometry>
        </mxCell>
        <mxCell id="i0ZZUqnmRl0zCU0rfzQK-50" value="(1, n)" style="text;strokeColor=none;fillColor=none;spacingLeft=4;spacingRight=4;overflow=hidden;rotatable=0;points=[[0,0.5],[1,0.5]];portConstraint=eastwest;fontSize=12;whiteSpace=wrap;html=1;" vertex="1" parent="1">
          <mxGeometry x="680" y="340" width="40" height="30" as="geometry" />
        </mxCell>
        <mxCell id="i0ZZUqnmRl0zCU0rfzQK-51" value="(1, 1)" style="text;strokeColor=none;fillColor=none;spacingLeft=4;spacingRight=4;overflow=hidden;rotatable=0;points=[[0,0.5],[1,0.5]];portConstraint=eastwest;fontSize=12;whiteSpace=wrap;html=1;" vertex="1" parent="1">
          <mxGeometry x="380" y="520" width="40" height="30" as="geometry" />
        </mxCell>
        <mxCell id="i0ZZUqnmRl0zCU0rfzQK-52" value="1 : N" style="text;strokeColor=none;fillColor=none;spacingLeft=4;spacingRight=4;overflow=hidden;rotatable=0;points=[[0,0.5],[1,0.5]];portConstraint=eastwest;fontSize=12;whiteSpace=wrap;html=1;" vertex="1" parent="1">
          <mxGeometry x="583" y="410" width="40" height="30" as="geometry" />
        </mxCell>
        <mxCell id="i0ZZUqnmRl0zCU0rfzQK-53" style="edgeStyle=orthogonalEdgeStyle;rounded=0;orthogonalLoop=1;jettySize=auto;html=1;entryX=0.5;entryY=1;entryDx=0;entryDy=0;" edge="1" parent="1" source="i0ZZUqnmRl0zCU0rfzQK-55" target="i0ZZUqnmRl0zCU0rfzQK-36">
          <mxGeometry relative="1" as="geometry" />
        </mxCell>
        <mxCell id="i0ZZUqnmRl0zCU0rfzQK-54" value="" style="edgeStyle=orthogonalEdgeStyle;rounded=0;orthogonalLoop=1;jettySize=auto;html=1;" edge="1" parent="1" source="i0ZZUqnmRl0zCU0rfzQK-55" target="i0ZZUqnmRl0zCU0rfzQK-56">
          <mxGeometry relative="1" as="geometry" />
        </mxCell>
        <mxCell id="i0ZZUqnmRl0zCU0rfzQK-55" value="Realizan" style="rhombus;whiteSpace=wrap;html=1;" vertex="1" parent="1">
          <mxGeometry x="780" y="360" width="74" height="40" as="geometry" />
        </mxCell>
        <mxCell id="i0ZZUqnmRl0zCU0rfzQK-56" value="Proyecto" style="whiteSpace=wrap;html=1;align=center;" vertex="1" parent="1">
          <mxGeometry x="767" y="470" width="100" height="40" as="geometry" />
        </mxCell>
        <mxCell id="i0ZZUqnmRl0zCU0rfzQK-57" value="" style="edgeStyle=orthogonalEdgeStyle;rounded=0;orthogonalLoop=1;jettySize=auto;html=1;" edge="1" parent="1" source="i0ZZUqnmRl0zCU0rfzQK-59" target="i0ZZUqnmRl0zCU0rfzQK-56">
          <mxGeometry relative="1" as="geometry" />
        </mxCell>
        <mxCell id="i0ZZUqnmRl0zCU0rfzQK-58" style="edgeStyle=orthogonalEdgeStyle;rounded=0;orthogonalLoop=1;jettySize=auto;html=1;entryX=1;entryY=0.5;entryDx=0;entryDy=0;" edge="1" parent="1" source="i0ZZUqnmRl0zCU0rfzQK-59" target="i0ZZUqnmRl0zCU0rfzQK-14">
          <mxGeometry relative="1" as="geometry" />
        </mxCell>
        <mxCell id="i0ZZUqnmRl0zCU0rfzQK-59" value="Estudia" style="rhombus;whiteSpace=wrap;html=1;" vertex="1" parent="1">
          <mxGeometry x="780" y="570" width="74" height="40" as="geometry" />
        </mxCell>
        <mxCell id="i0ZZUqnmRl0zCU0rfzQK-60" value="(0, n)" style="text;strokeColor=none;fillColor=none;spacingLeft=4;spacingRight=4;overflow=hidden;rotatable=0;points=[[0,0.5],[1,0.5]];portConstraint=eastwest;fontSize=12;whiteSpace=wrap;html=1;" vertex="1" parent="1">
          <mxGeometry x="820" y="440" width="40" height="30" as="geometry" />
        </mxCell>
        <mxCell id="i0ZZUqnmRl0zCU0rfzQK-61" value="(1, n)" style="text;strokeColor=none;fillColor=none;spacingLeft=4;spacingRight=4;overflow=hidden;rotatable=0;points=[[0,0.5],[1,0.5]];portConstraint=eastwest;fontSize=12;whiteSpace=wrap;html=1;" vertex="1" parent="1">
          <mxGeometry x="820" y="270" width="40" height="30" as="geometry" />
        </mxCell>
        <mxCell id="i0ZZUqnmRl0zCU0rfzQK-62" value="1 : N" style="text;strokeColor=none;fillColor=none;spacingLeft=4;spacingRight=4;overflow=hidden;rotatable=0;points=[[0,0.5],[1,0.5]];portConstraint=eastwest;fontSize=12;whiteSpace=wrap;html=1;" vertex="1" parent="1">
          <mxGeometry x="854" y="365" width="40" height="30" as="geometry" />
        </mxCell>
        <mxCell id="i0ZZUqnmRl0zCU0rfzQK-63" value="(1, 1)" style="text;strokeColor=none;fillColor=none;spacingLeft=4;spacingRight=4;overflow=hidden;rotatable=0;points=[[0,0.5],[1,0.5]];portConstraint=eastwest;fontSize=12;whiteSpace=wrap;html=1;" vertex="1" parent="1">
          <mxGeometry x="770" y="510" width="40" height="30" as="geometry" />
        </mxCell>
        <mxCell id="i0ZZUqnmRl0zCU0rfzQK-64" value="(1, 1)" style="text;strokeColor=none;fillColor=none;spacingLeft=4;spacingRight=4;overflow=hidden;rotatable=0;points=[[0,0.5],[1,0.5]];portConstraint=eastwest;fontSize=12;whiteSpace=wrap;html=1;" vertex="1" parent="1">
          <mxGeometry x="650" y="560" width="40" height="30" as="geometry" />
        </mxCell>
        <mxCell id="i0ZZUqnmRl0zCU0rfzQK-65" value="1 : 1" style="text;strokeColor=none;fillColor=none;spacingLeft=4;spacingRight=4;overflow=hidden;rotatable=0;points=[[0,0.5],[1,0.5]];portConstraint=eastwest;fontSize=12;whiteSpace=wrap;html=1;" vertex="1" parent="1">
          <mxGeometry x="830" y="600" width="40" height="30" as="geometry" />
        </mxCell>
        <mxCell id="i0ZZUqnmRl0zCU0rfzQK-66" value="DNI" style="ellipse;whiteSpace=wrap;html=1;align=center;fontStyle=4" vertex="1" parent="1">
          <mxGeometry x="810" y="70" width="100" height="20" as="geometry" />
        </mxCell>
        <mxCell id="i0ZZUqnmRl0zCU0rfzQK-67" value="NSS" style="ellipse;whiteSpace=wrap;html=1;align=center;" vertex="1" parent="1">
          <mxGeometry x="810" y="90" width="100" height="20" as="geometry" />
        </mxCell>
        <mxCell id="i0ZZUqnmRl0zCU0rfzQK-68" value="Nombre" style="ellipse;whiteSpace=wrap;html=1;align=center;" vertex="1" parent="1">
          <mxGeometry x="810" y="110" width="100" height="20" as="geometry" />
        </mxCell>
        <mxCell id="i0ZZUqnmRl0zCU0rfzQK-69" value="(1, n)" style="text;strokeColor=none;fillColor=none;spacingLeft=4;spacingRight=4;overflow=hidden;rotatable=0;points=[[0,0.5],[1,0.5]];portConstraint=eastwest;fontSize=12;whiteSpace=wrap;html=1;" vertex="1" parent="1">
          <mxGeometry x="270" y="170" width="40" height="30" as="geometry" />
        </mxCell>
        <mxCell id="i0ZZUqnmRl0zCU0rfzQK-70" value="(1, n)" style="text;strokeColor=none;fillColor=none;spacingLeft=4;spacingRight=4;overflow=hidden;rotatable=0;points=[[0,0.5],[1,0.5]];portConstraint=eastwest;fontSize=12;whiteSpace=wrap;html=1;" vertex="1" parent="1">
          <mxGeometry x="270" y="320" width="40" height="30" as="geometry" />
        </mxCell>
        <mxCell id="i0ZZUqnmRl0zCU0rfzQK-71" value="N : M" style="text;strokeColor=none;fillColor=none;spacingLeft=4;spacingRight=4;overflow=hidden;rotatable=0;points=[[0,0.5],[1,0.5]];portConstraint=eastwest;fontSize=12;whiteSpace=wrap;html=1;" vertex="1" parent="1">
          <mxGeometry x="310" y="245" width="40" height="30" as="geometry" />
        </mxCell>
        <mxCell id="i0ZZUqnmRl0zCU0rfzQK-72" value="(1, 1)" style="text;strokeColor=none;fillColor=none;spacingLeft=4;spacingRight=4;overflow=hidden;rotatable=0;points=[[0,0.5],[1,0.5]];portConstraint=eastwest;fontSize=12;whiteSpace=wrap;html=1;" vertex="1" parent="1">
          <mxGeometry x="230" y="390" width="40" height="30" as="geometry" />
        </mxCell>
        <mxCell id="i0ZZUqnmRl0zCU0rfzQK-73" value="(1, n)" style="text;strokeColor=none;fillColor=none;spacingLeft=4;spacingRight=4;overflow=hidden;rotatable=0;points=[[0,0.5],[1,0.5]];portConstraint=eastwest;fontSize=12;whiteSpace=wrap;html=1;" vertex="1" parent="1">
          <mxGeometry x="230" y="540" width="40" height="30" as="geometry" />
        </mxCell>
        <mxCell id="i0ZZUqnmRl0zCU0rfzQK-74" value="1 : N" style="text;strokeColor=none;fillColor=none;spacingLeft=4;spacingRight=4;overflow=hidden;rotatable=0;points=[[0,0.5],[1,0.5]];portConstraint=eastwest;fontSize=12;whiteSpace=wrap;html=1;" vertex="1" parent="1">
          <mxGeometry x="310" y="465" width="40" height="30" as="geometry" />
        </mxCell>
        <mxCell id="i0ZZUqnmRl0zCU0rfzQK-75" value="(1, n)" style="text;strokeColor=none;fillColor=none;spacingLeft=4;spacingRight=4;overflow=hidden;rotatable=0;points=[[0,0.5],[1,0.5]];portConstraint=eastwest;fontSize=12;whiteSpace=wrap;html=1;" vertex="1" parent="1">
          <mxGeometry x="503" y="590" width="40" height="30" as="geometry" />
        </mxCell>
        <mxCell id="i0ZZUqnmRl0zCU0rfzQK-76" value="(1, n)" style="text;strokeColor=none;fillColor=none;spacingLeft=4;spacingRight=4;overflow=hidden;rotatable=0;points=[[0,0.5],[1,0.5]];portConstraint=eastwest;fontSize=12;whiteSpace=wrap;html=1;" vertex="1" parent="1">
          <mxGeometry x="320" y="590" width="40" height="30" as="geometry" />
        </mxCell>
        <mxCell id="i0ZZUqnmRl0zCU0rfzQK-77" value="N : M" style="text;strokeColor=none;fillColor=none;spacingLeft=4;spacingRight=4;overflow=hidden;rotatable=0;points=[[0,0.5],[1,0.5]];portConstraint=eastwest;fontSize=12;whiteSpace=wrap;html=1;" vertex="1" parent="1">
          <mxGeometry x="413" y="610" width="40" height="30" as="geometry" />
        </mxCell>
        <mxCell id="i0ZZUqnmRl0zCU0rfzQK-78" value="(1, 1)" style="text;strokeColor=none;fillColor=none;spacingLeft=4;spacingRight=4;overflow=hidden;rotatable=0;points=[[0,0.5],[1,0.5]];portConstraint=eastwest;fontSize=12;whiteSpace=wrap;html=1;" vertex="1" parent="1">
          <mxGeometry x="320" y="330" width="40" height="30" as="geometry" />
        </mxCell>
        <mxCell id="i0ZZUqnmRl0zCU0rfzQK-79" value="(1, n)" style="text;strokeColor=none;fillColor=none;spacingLeft=4;spacingRight=4;overflow=hidden;rotatable=0;points=[[0,0.5],[1,0.5]];portConstraint=eastwest;fontSize=12;whiteSpace=wrap;html=1;" vertex="1" parent="1">
          <mxGeometry x="590" y="150" width="40" height="30" as="geometry" />
        </mxCell>
        <mxCell id="i0ZZUqnmRl0zCU0rfzQK-80" value="1 : N" style="text;strokeColor=none;fillColor=none;spacingLeft=4;spacingRight=4;overflow=hidden;rotatable=0;points=[[0,0.5],[1,0.5]];portConstraint=eastwest;fontSize=12;whiteSpace=wrap;html=1;" vertex="1" parent="1">
          <mxGeometry x="473" y="355" width="40" height="30" as="geometry" />
        </mxCell>
        <mxCell id="i0ZZUqnmRl0zCU0rfzQK-81" value="Direccion" style="ellipse;whiteSpace=wrap;html=1;align=center;" vertex="1" parent="1">
          <mxGeometry x="810" y="130" width="100" height="20" as="geometry" />
        </mxCell>
        <mxCell id="i0ZZUqnmRl0zCU0rfzQK-82" value="Telefono" style="ellipse;whiteSpace=wrap;html=1;align=center;" vertex="1" parent="1">
          <mxGeometry x="810" y="150" width="100" height="20" as="geometry" />
        </mxCell>
        <mxCell id="i0ZZUqnmRl0zCU0rfzQK-83" value="Sueldo" style="ellipse;whiteSpace=wrap;html=1;align=center;" vertex="1" parent="1">
          <mxGeometry x="810" y="170" width="100" height="20" as="geometry" />
        </mxCell>
        <mxCell id="i0ZZUqnmRl0zCU0rfzQK-84" value="DenoCientifica" style="ellipse;whiteSpace=wrap;html=1;align=center;" vertex="1" parent="1">
          <mxGeometry x="673" y="610" width="100" height="20" as="geometry" />
        </mxCell>
        <mxCell id="i0ZZUqnmRl0zCU0rfzQK-85" value="DenoVulgar" style="ellipse;whiteSpace=wrap;html=1;align=center;" vertex="1" parent="1">
          <mxGeometry x="673" y="630" width="100" height="20" as="geometry" />
        </mxCell>
        <mxCell id="i0ZZUqnmRl0zCU0rfzQK-86" value="NumInventariado" style="ellipse;whiteSpace=wrap;html=1;align=center;" vertex="1" parent="1">
          <mxGeometry x="673" y="650" width="100" height="20" as="geometry" />
        </mxCell>
        <mxCell id="i0ZZUqnmRl0zCU0rfzQK-87" value="Floracion" style="ellipse;whiteSpace=wrap;html=1;align=center;rotation=-45;" vertex="1" parent="1">
          <mxGeometry x="290" y="790" width="100" height="20" as="geometry" />
        </mxCell>
        <mxCell id="i0ZZUqnmRl0zCU0rfzQK-88" value="PeriodoFloracion" style="ellipse;whiteSpace=wrap;html=1;align=center;rotation=-45;" vertex="1" parent="1">
          <mxGeometry x="300" y="810" width="100" height="20" as="geometry" />
        </mxCell>
        <mxCell id="i0ZZUqnmRl0zCU0rfzQK-89" value="TipoAlimentacion" style="ellipse;whiteSpace=wrap;html=1;align=center;rotation=-90;" vertex="1" parent="1">
          <mxGeometry x="533" y="880" width="100" height="20" as="geometry" />
        </mxCell>
        <mxCell id="i0ZZUqnmRl0zCU0rfzQK-90" value="PeriodoCelo" style="ellipse;whiteSpace=wrap;html=1;align=center;rotation=-90;" vertex="1" parent="1">
          <mxGeometry x="553" y="880" width="100" height="20" as="geometry" />
        </mxCell>
        <mxCell id="i0ZZUqnmRl0zCU0rfzQK-91" value="Clasificacion" style="ellipse;whiteSpace=wrap;html=1;align=center;" vertex="1" parent="1">
          <mxGeometry x="820" y="720" width="100" height="20" as="geometry" />
        </mxCell>
        <mxCell id="i0ZZUqnmRl0zCU0rfzQK-92" value="Codigo" style="ellipse;whiteSpace=wrap;html=1;align=center;fontStyle=4" vertex="1" parent="1">
          <mxGeometry x="950" y="460" width="100" height="20" as="geometry" />
        </mxCell>
        <mxCell id="i0ZZUqnmRl0zCU0rfzQK-93" value="Presupuesto" style="ellipse;whiteSpace=wrap;html=1;align=center;" vertex="1" parent="1">
          <mxGeometry x="950" y="480" width="100" height="20" as="geometry" />
        </mxCell>
        <mxCell id="i0ZZUqnmRl0zCU0rfzQK-94" value="Periodo" style="ellipse;whiteSpace=wrap;html=1;align=center;" vertex="1" parent="1">
          <mxGeometry x="950" y="500" width="100" height="20" as="geometry" />
        </mxCell>
        <mxCell id="i0ZZUqnmRl0zCU0rfzQK-95" value="Nombre" style="ellipse;whiteSpace=wrap;html=1;align=center;" vertex="1" parent="1">
          <mxGeometry x="70" y="350" width="100" height="20" as="geometry" />
        </mxCell>
        <mxCell id="i0ZZUqnmRl0zCU0rfzQK-96" value="Fecha" style="ellipse;whiteSpace=wrap;html=1;align=center;" vertex="1" parent="1">
          <mxGeometry x="70" y="370" width="100" height="20" as="geometry" />
        </mxCell>
        <mxCell id="i0ZZUqnmRl0zCU0rfzQK-97" value="Nombre" style="ellipse;whiteSpace=wrap;html=1;align=center;" vertex="1" parent="1">
          <mxGeometry x="70" y="570" width="100" height="20" as="geometry" />
        </mxCell>
        <mxCell id="i0ZZUqnmRl0zCU0rfzQK-98" value="Extension" style="ellipse;whiteSpace=wrap;html=1;align=center;" vertex="1" parent="1">
          <mxGeometry x="70" y="590" width="100" height="20" as="geometry" />
        </mxCell>
        <mxCell id="i0ZZUqnmRl0zCU0rfzQK-99" value="(0, n)" style="text;strokeColor=none;fillColor=none;spacingLeft=4;spacingRight=4;overflow=hidden;rotatable=0;points=[[0,0.5],[1,0.5]];portConstraint=eastwest;fontSize=12;whiteSpace=wrap;html=1;" vertex="1" parent="1">
          <mxGeometry x="730" y="220" width="40" height="35" as="geometry" />
        </mxCell>
        <mxCell id="i0ZZUqnmRl0zCU0rfzQK-100" value="(0, n)" style="text;strokeColor=none;fillColor=none;spacingLeft=4;spacingRight=4;overflow=hidden;rotatable=0;points=[[0,0.5],[1,0.5]];portConstraint=eastwest;fontSize=12;whiteSpace=wrap;html=1;" vertex="1" parent="1">
          <mxGeometry x="727" y="270" width="40" height="30" as="geometry" />
        </mxCell>
        <mxCell id="i0ZZUqnmRl0zCU0rfzQK-101" value="(0, n)" style="text;strokeColor=none;fillColor=none;spacingLeft=4;spacingRight=4;overflow=hidden;rotatable=0;points=[[0,0.5],[1,0.5]];portConstraint=eastwest;fontSize=12;whiteSpace=wrap;html=1;" vertex="1" parent="1">
          <mxGeometry x="590" y="275" width="40" height="30" as="geometry" />
        </mxCell>
        <mxCell id="i0ZZUqnmRl0zCU0rfzQK-102" value="(0, n)" style="text;strokeColor=none;fillColor=none;spacingLeft=4;spacingRight=4;overflow=hidden;rotatable=0;points=[[0,0.5],[1,0.5]];portConstraint=eastwest;fontSize=12;whiteSpace=wrap;html=1;" vertex="1" parent="1">
          <mxGeometry x="583" y="220" width="40" height="35" as="geometry" />
        </mxCell>
        <mxCell id="i0ZZUqnmRl0zCU0rfzQK-103" value="" style="triangle;whiteSpace=wrap;html=1;rotation=90;" vertex="1" parent="1">
          <mxGeometry x="660" y="210" width="40" height="60" as="geometry" />
        </mxCell>
        <mxCell id="i0ZZUqnmRl0zCU0rfzQK-104" value="" style="endArrow=none;html=1;rounded=0;entryX=0;entryY=0.5;entryDx=0;entryDy=0;exitX=1;exitY=0;exitDx=0;exitDy=0;" edge="1" parent="1" source="i0ZZUqnmRl0zCU0rfzQK-28" target="i0ZZUqnmRl0zCU0rfzQK-66">
          <mxGeometry width="50" height="50" relative="1" as="geometry">
            <mxPoint x="620" y="260" as="sourcePoint" />
            <mxPoint x="670" y="210" as="targetPoint" />
          </mxGeometry>
        </mxCell>
        <mxCell id="i0ZZUqnmRl0zCU0rfzQK-105" value="" style="endArrow=none;html=1;rounded=0;entryX=0;entryY=0.5;entryDx=0;entryDy=0;exitX=1;exitY=0.25;exitDx=0;exitDy=0;" edge="1" parent="1" source="i0ZZUqnmRl0zCU0rfzQK-28" target="i0ZZUqnmRl0zCU0rfzQK-67">
          <mxGeometry width="50" height="50" relative="1" as="geometry">
            <mxPoint x="740" y="140" as="sourcePoint" />
            <mxPoint x="820" y="90" as="targetPoint" />
          </mxGeometry>
        </mxCell>
        <mxCell id="i0ZZUqnmRl0zCU0rfzQK-106" value="" style="endArrow=none;html=1;rounded=0;entryX=0;entryY=0.5;entryDx=0;entryDy=0;exitX=1;exitY=0.5;exitDx=0;exitDy=0;" edge="1" parent="1" source="i0ZZUqnmRl0zCU0rfzQK-28" target="i0ZZUqnmRl0zCU0rfzQK-68">
          <mxGeometry width="50" height="50" relative="1" as="geometry">
            <mxPoint x="740" y="150" as="sourcePoint" />
            <mxPoint x="820" y="110" as="targetPoint" />
          </mxGeometry>
        </mxCell>
        <mxCell id="i0ZZUqnmRl0zCU0rfzQK-107" value="" style="endArrow=none;html=1;rounded=0;entryX=0;entryY=0.5;entryDx=0;entryDy=0;exitX=1;exitY=0.75;exitDx=0;exitDy=0;" edge="1" parent="1" source="i0ZZUqnmRl0zCU0rfzQK-28" target="i0ZZUqnmRl0zCU0rfzQK-81">
          <mxGeometry width="50" height="50" relative="1" as="geometry">
            <mxPoint x="740" y="160" as="sourcePoint" />
            <mxPoint x="820" y="130" as="targetPoint" />
          </mxGeometry>
        </mxCell>
        <mxCell id="i0ZZUqnmRl0zCU0rfzQK-108" value="" style="endArrow=none;html=1;rounded=0;entryX=0;entryY=0.5;entryDx=0;entryDy=0;exitX=1;exitY=1;exitDx=0;exitDy=0;" edge="1" parent="1" source="i0ZZUqnmRl0zCU0rfzQK-28" target="i0ZZUqnmRl0zCU0rfzQK-82">
          <mxGeometry width="50" height="50" relative="1" as="geometry">
            <mxPoint x="740" y="170" as="sourcePoint" />
            <mxPoint x="820" y="150" as="targetPoint" />
          </mxGeometry>
        </mxCell>
        <mxCell id="i0ZZUqnmRl0zCU0rfzQK-109" value="" style="endArrow=none;html=1;rounded=0;entryX=0;entryY=0.5;entryDx=0;entryDy=0;exitX=0.75;exitY=1;exitDx=0;exitDy=0;" edge="1" parent="1" source="i0ZZUqnmRl0zCU0rfzQK-28" target="i0ZZUqnmRl0zCU0rfzQK-83">
          <mxGeometry width="50" height="50" relative="1" as="geometry">
            <mxPoint x="740" y="180" as="sourcePoint" />
            <mxPoint x="820" y="170" as="targetPoint" />
          </mxGeometry>
        </mxCell>
        <mxCell id="i0ZZUqnmRl0zCU0rfzQK-110" value="" style="endArrow=none;html=1;rounded=0;entryX=0;entryY=0.5;entryDx=0;entryDy=0;exitX=1;exitY=1;exitDx=0;exitDy=0;" edge="1" parent="1" target="i0ZZUqnmRl0zCU0rfzQK-92">
          <mxGeometry width="50" height="50" relative="1" as="geometry">
            <mxPoint x="867" y="480" as="sourcePoint" />
            <mxPoint x="947" y="470" as="targetPoint" />
          </mxGeometry>
        </mxCell>
        <mxCell id="i0ZZUqnmRl0zCU0rfzQK-111" value="" style="endArrow=none;html=1;rounded=0;entryX=0;entryY=0.5;entryDx=0;entryDy=0;exitX=1;exitY=0.5;exitDx=0;exitDy=0;" edge="1" parent="1" source="i0ZZUqnmRl0zCU0rfzQK-56" target="i0ZZUqnmRl0zCU0rfzQK-93">
          <mxGeometry width="50" height="50" relative="1" as="geometry">
            <mxPoint x="877" y="490" as="sourcePoint" />
            <mxPoint x="960" y="480" as="targetPoint" />
          </mxGeometry>
        </mxCell>
        <mxCell id="i0ZZUqnmRl0zCU0rfzQK-112" value="" style="endArrow=none;html=1;rounded=0;entryX=0;entryY=0.5;entryDx=0;entryDy=0;exitX=1;exitY=0.75;exitDx=0;exitDy=0;" edge="1" parent="1" source="i0ZZUqnmRl0zCU0rfzQK-56" target="i0ZZUqnmRl0zCU0rfzQK-94">
          <mxGeometry width="50" height="50" relative="1" as="geometry">
            <mxPoint x="877" y="500" as="sourcePoint" />
            <mxPoint x="960" y="500" as="targetPoint" />
          </mxGeometry>
        </mxCell>
        <mxCell id="i0ZZUqnmRl0zCU0rfzQK-113" value="" style="endArrow=none;html=1;rounded=0;entryX=0;entryY=0.5;entryDx=0;entryDy=0;exitX=1;exitY=0.5;exitDx=0;exitDy=0;" edge="1" parent="1" source="i0ZZUqnmRl0zCU0rfzQK-21" target="i0ZZUqnmRl0zCU0rfzQK-91">
          <mxGeometry width="50" height="50" relative="1" as="geometry">
            <mxPoint x="877" y="510" as="sourcePoint" />
            <mxPoint x="960" y="520" as="targetPoint" />
          </mxGeometry>
        </mxCell>
        <mxCell id="i0ZZUqnmRl0zCU0rfzQK-114" value="" style="endArrow=none;html=1;rounded=0;entryX=0;entryY=0.5;entryDx=0;entryDy=0;exitX=0.75;exitY=1;exitDx=0;exitDy=0;" edge="1" parent="1" source="i0ZZUqnmRl0zCU0rfzQK-14" target="i0ZZUqnmRl0zCU0rfzQK-86">
          <mxGeometry width="50" height="50" relative="1" as="geometry">
            <mxPoint x="780" y="740" as="sourcePoint" />
            <mxPoint x="830" y="740" as="targetPoint" />
          </mxGeometry>
        </mxCell>
        <mxCell id="i0ZZUqnmRl0zCU0rfzQK-115" value="" style="endArrow=none;html=1;rounded=0;entryX=0;entryY=0.5;entryDx=0;entryDy=0;exitX=1;exitY=1;exitDx=0;exitDy=0;" edge="1" parent="1" source="i0ZZUqnmRl0zCU0rfzQK-14" target="i0ZZUqnmRl0zCU0rfzQK-85">
          <mxGeometry width="50" height="50" relative="1" as="geometry">
            <mxPoint x="628" y="620" as="sourcePoint" />
            <mxPoint x="683" y="670" as="targetPoint" />
          </mxGeometry>
        </mxCell>
        <mxCell id="i0ZZUqnmRl0zCU0rfzQK-116" value="" style="endArrow=none;html=1;rounded=0;entryX=0;entryY=0.5;entryDx=0;entryDy=0;exitX=1;exitY=0.75;exitDx=0;exitDy=0;" edge="1" parent="1" source="i0ZZUqnmRl0zCU0rfzQK-14" target="i0ZZUqnmRl0zCU0rfzQK-84">
          <mxGeometry width="50" height="50" relative="1" as="geometry">
            <mxPoint x="653" y="620" as="sourcePoint" />
            <mxPoint x="683" y="650" as="targetPoint" />
          </mxGeometry>
        </mxCell>
        <mxCell id="i0ZZUqnmRl0zCU0rfzQK-117" value="" style="endArrow=none;html=1;rounded=0;entryX=1;entryY=0.5;entryDx=0;entryDy=0;exitX=0.75;exitY=1;exitDx=0;exitDy=0;" edge="1" parent="1" source="i0ZZUqnmRl0zCU0rfzQK-20" target="i0ZZUqnmRl0zCU0rfzQK-90">
          <mxGeometry width="50" height="50" relative="1" as="geometry">
            <mxPoint x="653" y="610" as="sourcePoint" />
            <mxPoint x="683" y="630" as="targetPoint" />
          </mxGeometry>
        </mxCell>
        <mxCell id="i0ZZUqnmRl0zCU0rfzQK-118" value="" style="endArrow=none;html=1;rounded=0;entryX=1;entryY=0.5;entryDx=0;entryDy=0;exitX=0.25;exitY=1;exitDx=0;exitDy=0;" edge="1" parent="1" source="i0ZZUqnmRl0zCU0rfzQK-20" target="i0ZZUqnmRl0zCU0rfzQK-89">
          <mxGeometry width="50" height="50" relative="1" as="geometry">
            <mxPoint x="628" y="810" as="sourcePoint" />
            <mxPoint x="613" y="850" as="targetPoint" />
          </mxGeometry>
        </mxCell>
        <mxCell id="i0ZZUqnmRl0zCU0rfzQK-119" value="" style="endArrow=none;html=1;rounded=0;entryX=1;entryY=0.5;entryDx=0;entryDy=0;exitX=0.25;exitY=1;exitDx=0;exitDy=0;" edge="1" parent="1" source="i0ZZUqnmRl0zCU0rfzQK-19" target="i0ZZUqnmRl0zCU0rfzQK-88">
          <mxGeometry width="50" height="50" relative="1" as="geometry">
            <mxPoint x="578" y="810" as="sourcePoint" />
            <mxPoint x="593" y="850" as="targetPoint" />
          </mxGeometry>
        </mxCell>
        <mxCell id="i0ZZUqnmRl0zCU0rfzQK-120" value="" style="endArrow=none;html=1;rounded=0;entryX=1;entryY=0.5;entryDx=0;entryDy=0;exitX=0;exitY=0.75;exitDx=0;exitDy=0;" edge="1" parent="1" source="i0ZZUqnmRl0zCU0rfzQK-19" target="i0ZZUqnmRl0zCU0rfzQK-87">
          <mxGeometry width="50" height="50" relative="1" as="geometry">
            <mxPoint x="445" y="760" as="sourcePoint" />
            <mxPoint x="395" y="795" as="targetPoint" />
          </mxGeometry>
        </mxCell>
        <mxCell id="i0ZZUqnmRl0zCU0rfzQK-121" value="" style="endArrow=none;html=1;rounded=0;entryX=0;entryY=0.5;entryDx=0;entryDy=0;exitX=1;exitY=0.5;exitDx=0;exitDy=0;" edge="1" parent="1">
          <mxGeometry width="50" height="50" relative="1" as="geometry">
            <mxPoint x="170" y="599.5699999999999" as="sourcePoint" />
            <mxPoint x="220" y="599.5699999999999" as="targetPoint" />
          </mxGeometry>
        </mxCell>
        <mxCell id="i0ZZUqnmRl0zCU0rfzQK-122" value="" style="endArrow=none;html=1;rounded=0;entryX=0;entryY=0.5;entryDx=0;entryDy=0;exitX=1;exitY=0.5;exitDx=0;exitDy=0;" edge="1" parent="1">
          <mxGeometry width="50" height="50" relative="1" as="geometry">
            <mxPoint x="170" y="579.5699999999999" as="sourcePoint" />
            <mxPoint x="220" y="579.5699999999999" as="targetPoint" />
          </mxGeometry>
        </mxCell>
        <mxCell id="i0ZZUqnmRl0zCU0rfzQK-123" value="" style="endArrow=none;html=1;rounded=0;entryX=0;entryY=0.5;entryDx=0;entryDy=0;exitX=1;exitY=0.5;exitDx=0;exitDy=0;" edge="1" parent="1">
          <mxGeometry width="50" height="50" relative="1" as="geometry">
            <mxPoint x="170" y="379.56999999999994" as="sourcePoint" />
            <mxPoint x="220" y="379.56999999999994" as="targetPoint" />
          </mxGeometry>
        </mxCell>
        <mxCell id="i0ZZUqnmRl0zCU0rfzQK-124" value="" style="endArrow=none;html=1;rounded=0;entryX=0;entryY=0.5;entryDx=0;entryDy=0;exitX=1;exitY=0.5;exitDx=0;exitDy=0;" edge="1" parent="1">
          <mxGeometry width="50" height="50" relative="1" as="geometry">
            <mxPoint x="170" y="359.12999999999994" as="sourcePoint" />
            <mxPoint x="220" y="359.12999999999994" as="targetPoint" />
          </mxGeometry>
        </mxCell>
        <mxCell id="i0ZZUqnmRl0zCU0rfzQK-125" value="CCAA" style="shape=table;startSize=30;container=1;collapsible=1;childLayout=tableLayout;fixedRows=1;rowLines=0;fontStyle=1;align=center;resizeLast=1;html=1;" vertex="1" parent="1">
          <mxGeometry x="2099" y="120" width="180" height="60" as="geometry" />
        </mxCell>
        <mxCell id="i0ZZUqnmRl0zCU0rfzQK-126" value="" style="shape=tableRow;horizontal=0;startSize=0;swimlaneHead=0;swimlaneBody=0;fillColor=none;collapsible=0;dropTarget=0;points=[[0,0.5],[1,0.5]];portConstraint=eastwest;top=0;left=0;right=0;bottom=1;" vertex="1" parent="i0ZZUqnmRl0zCU0rfzQK-125">
          <mxGeometry y="30" width="180" height="30" as="geometry" />
        </mxCell>
        <mxCell id="i0ZZUqnmRl0zCU0rfzQK-127" value="PK" style="shape=partialRectangle;connectable=0;fillColor=none;top=0;left=0;bottom=0;right=0;fontStyle=1;overflow=hidden;whiteSpace=wrap;html=1;" vertex="1" parent="i0ZZUqnmRl0zCU0rfzQK-126">
          <mxGeometry width="30" height="30" as="geometry">
            <mxRectangle width="30" height="30" as="alternateBounds" />
          </mxGeometry>
        </mxCell>
        <mxCell id="i0ZZUqnmRl0zCU0rfzQK-128" value="CÃ³digo CCAA" style="shape=partialRectangle;connectable=0;fillColor=none;top=0;left=0;bottom=0;right=0;align=left;spacingLeft=6;fontStyle=5;overflow=hidden;whiteSpace=wrap;html=1;" vertex="1" parent="i0ZZUqnmRl0zCU0rfzQK-126">
          <mxGeometry x="30" width="150" height="30" as="geometry">
            <mxRectangle width="150" height="30" as="alternateBounds" />
          </mxGeometry>
        </mxCell>
        <mxCell id="i0ZZUqnmRl0zCU0rfzQK-129" style="edgeStyle=orthogonalEdgeStyle;rounded=0;orthogonalLoop=1;jettySize=auto;html=1;entryX=1;entryY=0.5;entryDx=0;entryDy=0;" edge="1" parent="1" source="i0ZZUqnmRl0zCU0rfzQK-130" target="i0ZZUqnmRl0zCU0rfzQK-180">
          <mxGeometry relative="1" as="geometry" />
        </mxCell>
        <mxCell id="i0ZZUqnmRl0zCU0rfzQK-130" value="Parque Natural" style="shape=table;startSize=30;container=1;collapsible=1;childLayout=tableLayout;fixedRows=1;rowLines=0;fontStyle=1;align=center;resizeLast=1;html=1;" vertex="1" parent="1">
          <mxGeometry x="1529" y="105" width="180" height="90" as="geometry" />
        </mxCell>
        <mxCell id="i0ZZUqnmRl0zCU0rfzQK-131" value="" style="shape=tableRow;horizontal=0;startSize=0;swimlaneHead=0;swimlaneBody=0;fillColor=none;collapsible=0;dropTarget=0;points=[[0,0.5],[1,0.5]];portConstraint=eastwest;top=0;left=0;right=0;bottom=1;" vertex="1" parent="i0ZZUqnmRl0zCU0rfzQK-130">
          <mxGeometry y="30" width="180" height="30" as="geometry" />
        </mxCell>
        <mxCell id="i0ZZUqnmRl0zCU0rfzQK-132" value="PK" style="shape=partialRectangle;connectable=0;fillColor=none;top=0;left=0;bottom=0;right=0;fontStyle=1;overflow=hidden;whiteSpace=wrap;html=1;" vertex="1" parent="i0ZZUqnmRl0zCU0rfzQK-131">
          <mxGeometry width="30" height="30" as="geometry">
            <mxRectangle width="30" height="30" as="alternateBounds" />
          </mxGeometry>
        </mxCell>
        <mxCell id="i0ZZUqnmRl0zCU0rfzQK-133" value="Nombre Parque" style="shape=partialRectangle;connectable=0;fillColor=none;top=0;left=0;bottom=0;right=0;align=left;spacingLeft=6;fontStyle=5;overflow=hidden;whiteSpace=wrap;html=1;" vertex="1" parent="i0ZZUqnmRl0zCU0rfzQK-131">
          <mxGeometry x="30" width="150" height="30" as="geometry">
            <mxRectangle width="150" height="30" as="alternateBounds" />
          </mxGeometry>
        </mxCell>
        <mxCell id="i0ZZUqnmRl0zCU0rfzQK-134" style="shape=tableRow;horizontal=0;startSize=0;swimlaneHead=0;swimlaneBody=0;fillColor=none;collapsible=0;dropTarget=0;points=[[0,0.5],[1,0.5]];portConstraint=eastwest;top=0;left=0;right=0;bottom=1;" vertex="1" parent="i0ZZUqnmRl0zCU0rfzQK-130">
          <mxGeometry y="60" width="180" height="30" as="geometry" />
        </mxCell>
        <mxCell id="i0ZZUqnmRl0zCU0rfzQK-135" style="shape=partialRectangle;connectable=0;fillColor=none;top=0;left=0;bottom=0;right=0;fontStyle=1;overflow=hidden;whiteSpace=wrap;html=1;" vertex="1" parent="i0ZZUqnmRl0zCU0rfzQK-134">
          <mxGeometry width="30" height="30" as="geometry">
            <mxRectangle width="30" height="30" as="alternateBounds" />
          </mxGeometry>
        </mxCell>
        <mxCell id="i0ZZUqnmRl0zCU0rfzQK-136" value="Fecha declarado" style="shape=partialRectangle;connectable=0;fillColor=none;top=0;left=0;bottom=0;right=0;align=left;spacingLeft=6;fontStyle=0;overflow=hidden;whiteSpace=wrap;html=1;" vertex="1" parent="i0ZZUqnmRl0zCU0rfzQK-134">
          <mxGeometry x="30" width="150" height="30" as="geometry">
            <mxRectangle width="150" height="30" as="alternateBounds" />
          </mxGeometry>
        </mxCell>
        <mxCell id="i0ZZUqnmRl0zCU0rfzQK-137" value="Pertenece" style="shape=table;startSize=30;container=1;collapsible=1;childLayout=tableLayout;fixedRows=1;rowLines=0;fontStyle=1;align=center;resizeLast=1;html=1;" vertex="1" parent="1">
          <mxGeometry x="1816" y="80" width="180" height="90" as="geometry" />
        </mxCell>
        <mxCell id="i0ZZUqnmRl0zCU0rfzQK-138" value="" style="shape=tableRow;horizontal=0;startSize=0;swimlaneHead=0;swimlaneBody=0;fillColor=none;collapsible=0;dropTarget=0;points=[[0,0.5],[1,0.5]];portConstraint=eastwest;top=0;left=0;right=0;bottom=1;" vertex="1" parent="i0ZZUqnmRl0zCU0rfzQK-137">
          <mxGeometry y="30" width="180" height="30" as="geometry" />
        </mxCell>
        <mxCell id="i0ZZUqnmRl0zCU0rfzQK-139" value="PK,FK 1" style="shape=partialRectangle;connectable=0;fillColor=none;top=0;left=0;bottom=0;right=0;fontStyle=1;overflow=hidden;whiteSpace=wrap;html=1;" vertex="1" parent="i0ZZUqnmRl0zCU0rfzQK-138">
          <mxGeometry width="63" height="30" as="geometry">
            <mxRectangle width="63" height="30" as="alternateBounds" />
          </mxGeometry>
        </mxCell>
        <mxCell id="i0ZZUqnmRl0zCU0rfzQK-140" value="Nombre Parque" style="shape=partialRectangle;connectable=0;fillColor=none;top=0;left=0;bottom=0;right=0;align=left;spacingLeft=6;fontStyle=5;overflow=hidden;whiteSpace=wrap;html=1;" vertex="1" parent="i0ZZUqnmRl0zCU0rfzQK-138">
          <mxGeometry x="63" width="117" height="30" as="geometry">
            <mxRectangle width="117" height="30" as="alternateBounds" />
          </mxGeometry>
        </mxCell>
        <mxCell id="i0ZZUqnmRl0zCU0rfzQK-141" style="shape=tableRow;horizontal=0;startSize=0;swimlaneHead=0;swimlaneBody=0;fillColor=none;collapsible=0;dropTarget=0;points=[[0,0.5],[1,0.5]];portConstraint=eastwest;top=0;left=0;right=0;bottom=1;" vertex="1" parent="i0ZZUqnmRl0zCU0rfzQK-137">
          <mxGeometry y="60" width="180" height="30" as="geometry" />
        </mxCell>
        <mxCell id="i0ZZUqnmRl0zCU0rfzQK-142" value="PK,FK2" style="shape=partialRectangle;connectable=0;fillColor=none;top=0;left=0;bottom=0;right=0;fontStyle=1;overflow=hidden;whiteSpace=wrap;html=1;" vertex="1" parent="i0ZZUqnmRl0zCU0rfzQK-141">
          <mxGeometry width="63" height="30" as="geometry">
            <mxRectangle width="63" height="30" as="alternateBounds" />
          </mxGeometry>
        </mxCell>
        <mxCell id="i0ZZUqnmRl0zCU0rfzQK-143" value="CÃ³digo CCAA" style="shape=partialRectangle;connectable=0;fillColor=none;top=0;left=0;bottom=0;right=0;align=left;spacingLeft=6;fontStyle=5;overflow=hidden;whiteSpace=wrap;html=1;" vertex="1" parent="i0ZZUqnmRl0zCU0rfzQK-141">
          <mxGeometry x="63" width="117" height="30" as="geometry">
            <mxRectangle width="117" height="30" as="alternateBounds" />
          </mxGeometry>
        </mxCell>
        <mxCell id="i0ZZUqnmRl0zCU0rfzQK-144" style="edgeStyle=orthogonalEdgeStyle;rounded=0;orthogonalLoop=1;jettySize=auto;html=1;entryX=1;entryY=0.5;entryDx=0;entryDy=0;" edge="1" parent="1" source="i0ZZUqnmRl0zCU0rfzQK-126" target="i0ZZUqnmRl0zCU0rfzQK-141">
          <mxGeometry relative="1" as="geometry" />
        </mxCell>
        <mxCell id="i0ZZUqnmRl0zCU0rfzQK-145" style="edgeStyle=orthogonalEdgeStyle;rounded=0;orthogonalLoop=1;jettySize=auto;html=1;entryX=0;entryY=0.5;entryDx=0;entryDy=0;" edge="1" parent="1" source="i0ZZUqnmRl0zCU0rfzQK-131" target="i0ZZUqnmRl0zCU0rfzQK-138">
          <mxGeometry relative="1" as="geometry" />
        </mxCell>
        <mxCell id="i0ZZUqnmRl0zCU0rfzQK-146" value="M" style="text;strokeColor=none;fillColor=none;spacingLeft=4;spacingRight=4;overflow=hidden;rotatable=0;points=[[0,0.5],[1,0.5]];portConstraint=eastwest;fontSize=12;whiteSpace=wrap;html=1;" vertex="1" parent="1">
          <mxGeometry x="2009" y="160" width="40" height="30" as="geometry" />
        </mxCell>
        <mxCell id="i0ZZUqnmRl0zCU0rfzQK-147" value="M" style="text;strokeColor=none;fillColor=none;spacingLeft=4;spacingRight=4;overflow=hidden;rotatable=0;points=[[0,0.5],[1,0.5]];portConstraint=eastwest;fontSize=12;whiteSpace=wrap;html=1;" vertex="1" parent="1">
          <mxGeometry x="1789" y="90" width="40" height="30" as="geometry" />
        </mxCell>
        <mxCell id="i0ZZUqnmRl0zCU0rfzQK-148" value="Personal" style="shape=table;startSize=30;container=1;collapsible=1;childLayout=tableLayout;fixedRows=1;rowLines=0;fontStyle=1;align=center;resizeLast=1;html=1;" vertex="1" parent="1">
          <mxGeometry x="1182" y="380" width="180" height="330" as="geometry" />
        </mxCell>
        <mxCell id="i0ZZUqnmRl0zCU0rfzQK-149" value="" style="shape=tableRow;horizontal=0;startSize=0;swimlaneHead=0;swimlaneBody=0;fillColor=none;collapsible=0;dropTarget=0;points=[[0,0.5],[1,0.5]];portConstraint=eastwest;top=0;left=0;right=0;bottom=1;" vertex="1" parent="i0ZZUqnmRl0zCU0rfzQK-148">
          <mxGeometry y="30" width="180" height="30" as="geometry" />
        </mxCell>
        <mxCell id="i0ZZUqnmRl0zCU0rfzQK-150" value="PK" style="shape=partialRectangle;connectable=0;fillColor=none;top=0;left=0;bottom=0;right=0;fontStyle=1;overflow=hidden;whiteSpace=wrap;html=1;" vertex="1" parent="i0ZZUqnmRl0zCU0rfzQK-149">
          <mxGeometry width="30" height="30" as="geometry">
            <mxRectangle width="30" height="30" as="alternateBounds" />
          </mxGeometry>
        </mxCell>
        <mxCell id="i0ZZUqnmRl0zCU0rfzQK-151" value="DNI" style="shape=partialRectangle;connectable=0;fillColor=none;top=0;left=0;bottom=0;right=0;align=left;spacingLeft=6;fontStyle=5;overflow=hidden;whiteSpace=wrap;html=1;" vertex="1" parent="i0ZZUqnmRl0zCU0rfzQK-149">
          <mxGeometry x="30" width="150" height="30" as="geometry">
            <mxRectangle width="150" height="30" as="alternateBounds" />
          </mxGeometry>
        </mxCell>
        <mxCell id="i0ZZUqnmRl0zCU0rfzQK-152" style="shape=tableRow;horizontal=0;startSize=0;swimlaneHead=0;swimlaneBody=0;fillColor=none;collapsible=0;dropTarget=0;points=[[0,0.5],[1,0.5]];portConstraint=eastwest;top=0;left=0;right=0;bottom=1;" vertex="1" parent="i0ZZUqnmRl0zCU0rfzQK-148">
          <mxGeometry y="60" width="180" height="30" as="geometry" />
        </mxCell>
        <mxCell id="i0ZZUqnmRl0zCU0rfzQK-153" value="FK" style="shape=partialRectangle;connectable=0;fillColor=none;top=0;left=0;bottom=0;right=0;fontStyle=1;overflow=hidden;whiteSpace=wrap;html=1;" vertex="1" parent="i0ZZUqnmRl0zCU0rfzQK-152">
          <mxGeometry width="30" height="30" as="geometry">
            <mxRectangle width="30" height="30" as="alternateBounds" />
          </mxGeometry>
        </mxCell>
        <mxCell id="i0ZZUqnmRl0zCU0rfzQK-154" value="Nombre Areas" style="shape=partialRectangle;connectable=0;fillColor=none;top=0;left=0;bottom=0;right=0;align=left;spacingLeft=6;fontStyle=5;overflow=hidden;whiteSpace=wrap;html=1;" vertex="1" parent="i0ZZUqnmRl0zCU0rfzQK-152">
          <mxGeometry x="30" width="150" height="30" as="geometry">
            <mxRectangle width="150" height="30" as="alternateBounds" />
          </mxGeometry>
        </mxCell>
        <mxCell id="i0ZZUqnmRl0zCU0rfzQK-155" style="shape=tableRow;horizontal=0;startSize=0;swimlaneHead=0;swimlaneBody=0;fillColor=none;collapsible=0;dropTarget=0;points=[[0,0.5],[1,0.5]];portConstraint=eastwest;top=0;left=0;right=0;bottom=1;" vertex="1" parent="i0ZZUqnmRl0zCU0rfzQK-148">
          <mxGeometry y="90" width="180" height="30" as="geometry" />
        </mxCell>
        <mxCell id="i0ZZUqnmRl0zCU0rfzQK-156" style="shape=partialRectangle;connectable=0;fillColor=none;top=0;left=0;bottom=0;right=0;fontStyle=1;overflow=hidden;whiteSpace=wrap;html=1;" vertex="1" parent="i0ZZUqnmRl0zCU0rfzQK-155">
          <mxGeometry width="30" height="30" as="geometry">
            <mxRectangle width="30" height="30" as="alternateBounds" />
          </mxGeometry>
        </mxCell>
        <mxCell id="i0ZZUqnmRl0zCU0rfzQK-157" value="Num SS" style="shape=partialRectangle;connectable=0;fillColor=none;top=0;left=0;bottom=0;right=0;align=left;spacingLeft=6;fontStyle=0;overflow=hidden;whiteSpace=wrap;html=1;" vertex="1" parent="i0ZZUqnmRl0zCU0rfzQK-155">
          <mxGeometry x="30" width="150" height="30" as="geometry">
            <mxRectangle width="150" height="30" as="alternateBounds" />
          </mxGeometry>
        </mxCell>
        <mxCell id="i0ZZUqnmRl0zCU0rfzQK-158" style="shape=tableRow;horizontal=0;startSize=0;swimlaneHead=0;swimlaneBody=0;fillColor=none;collapsible=0;dropTarget=0;points=[[0,0.5],[1,0.5]];portConstraint=eastwest;top=0;left=0;right=0;bottom=1;" vertex="1" parent="i0ZZUqnmRl0zCU0rfzQK-148">
          <mxGeometry y="120" width="180" height="30" as="geometry" />
        </mxCell>
        <mxCell id="i0ZZUqnmRl0zCU0rfzQK-159" style="shape=partialRectangle;connectable=0;fillColor=none;top=0;left=0;bottom=0;right=0;fontStyle=1;overflow=hidden;whiteSpace=wrap;html=1;" vertex="1" parent="i0ZZUqnmRl0zCU0rfzQK-158">
          <mxGeometry width="30" height="30" as="geometry">
            <mxRectangle width="30" height="30" as="alternateBounds" />
          </mxGeometry>
        </mxCell>
        <mxCell id="i0ZZUqnmRl0zCU0rfzQK-160" value="Nombre" style="shape=partialRectangle;connectable=0;fillColor=none;top=0;left=0;bottom=0;right=0;align=left;spacingLeft=6;fontStyle=0;overflow=hidden;whiteSpace=wrap;html=1;" vertex="1" parent="i0ZZUqnmRl0zCU0rfzQK-158">
          <mxGeometry x="30" width="150" height="30" as="geometry">
            <mxRectangle width="150" height="30" as="alternateBounds" />
          </mxGeometry>
        </mxCell>
        <mxCell id="i0ZZUqnmRl0zCU0rfzQK-161" style="shape=tableRow;horizontal=0;startSize=0;swimlaneHead=0;swimlaneBody=0;fillColor=none;collapsible=0;dropTarget=0;points=[[0,0.5],[1,0.5]];portConstraint=eastwest;top=0;left=0;right=0;bottom=1;" vertex="1" parent="i0ZZUqnmRl0zCU0rfzQK-148">
          <mxGeometry y="150" width="180" height="30" as="geometry" />
        </mxCell>
        <mxCell id="i0ZZUqnmRl0zCU0rfzQK-162" style="shape=partialRectangle;connectable=0;fillColor=none;top=0;left=0;bottom=0;right=0;fontStyle=1;overflow=hidden;whiteSpace=wrap;html=1;" vertex="1" parent="i0ZZUqnmRl0zCU0rfzQK-161">
          <mxGeometry width="30" height="30" as="geometry">
            <mxRectangle width="30" height="30" as="alternateBounds" />
          </mxGeometry>
        </mxCell>
        <mxCell id="i0ZZUqnmRl0zCU0rfzQK-163" value="DirecciÃ³n" style="shape=partialRectangle;connectable=0;fillColor=none;top=0;left=0;bottom=0;right=0;align=left;spacingLeft=6;fontStyle=0;overflow=hidden;whiteSpace=wrap;html=1;" vertex="1" parent="i0ZZUqnmRl0zCU0rfzQK-161">
          <mxGeometry x="30" width="150" height="30" as="geometry">
            <mxRectangle width="150" height="30" as="alternateBounds" />
          </mxGeometry>
        </mxCell>
        <mxCell id="i0ZZUqnmRl0zCU0rfzQK-164" style="shape=tableRow;horizontal=0;startSize=0;swimlaneHead=0;swimlaneBody=0;fillColor=none;collapsible=0;dropTarget=0;points=[[0,0.5],[1,0.5]];portConstraint=eastwest;top=0;left=0;right=0;bottom=1;" vertex="1" parent="i0ZZUqnmRl0zCU0rfzQK-148">
          <mxGeometry y="180" width="180" height="30" as="geometry" />
        </mxCell>
        <mxCell id="i0ZZUqnmRl0zCU0rfzQK-165" style="shape=partialRectangle;connectable=0;fillColor=none;top=0;left=0;bottom=0;right=0;fontStyle=1;overflow=hidden;whiteSpace=wrap;html=1;" vertex="1" parent="i0ZZUqnmRl0zCU0rfzQK-164">
          <mxGeometry width="30" height="30" as="geometry">
            <mxRectangle width="30" height="30" as="alternateBounds" />
          </mxGeometry>
        </mxCell>
        <mxCell id="i0ZZUqnmRl0zCU0rfzQK-166" value="TelÃ©fono" style="shape=partialRectangle;connectable=0;fillColor=none;top=0;left=0;bottom=0;right=0;align=left;spacingLeft=6;fontStyle=0;overflow=hidden;whiteSpace=wrap;html=1;" vertex="1" parent="i0ZZUqnmRl0zCU0rfzQK-164">
          <mxGeometry x="30" width="150" height="30" as="geometry">
            <mxRectangle width="150" height="30" as="alternateBounds" />
          </mxGeometry>
        </mxCell>
        <mxCell id="i0ZZUqnmRl0zCU0rfzQK-167" style="shape=tableRow;horizontal=0;startSize=0;swimlaneHead=0;swimlaneBody=0;fillColor=none;collapsible=0;dropTarget=0;points=[[0,0.5],[1,0.5]];portConstraint=eastwest;top=0;left=0;right=0;bottom=1;" vertex="1" parent="i0ZZUqnmRl0zCU0rfzQK-148">
          <mxGeometry y="210" width="180" height="30" as="geometry" />
        </mxCell>
        <mxCell id="i0ZZUqnmRl0zCU0rfzQK-168" style="shape=partialRectangle;connectable=0;fillColor=none;top=0;left=0;bottom=0;right=0;fontStyle=1;overflow=hidden;whiteSpace=wrap;html=1;" vertex="1" parent="i0ZZUqnmRl0zCU0rfzQK-167">
          <mxGeometry width="30" height="30" as="geometry">
            <mxRectangle width="30" height="30" as="alternateBounds" />
          </mxGeometry>
        </mxCell>
        <mxCell id="i0ZZUqnmRl0zCU0rfzQK-169" value="Sueldo" style="shape=partialRectangle;connectable=0;fillColor=none;top=0;left=0;bottom=0;right=0;align=left;spacingLeft=6;fontStyle=0;overflow=hidden;whiteSpace=wrap;html=1;" vertex="1" parent="i0ZZUqnmRl0zCU0rfzQK-167">
          <mxGeometry x="30" width="150" height="30" as="geometry">
            <mxRectangle width="150" height="30" as="alternateBounds" />
          </mxGeometry>
        </mxCell>
        <mxCell id="i0ZZUqnmRl0zCU0rfzQK-170" style="shape=tableRow;horizontal=0;startSize=0;swimlaneHead=0;swimlaneBody=0;fillColor=none;collapsible=0;dropTarget=0;points=[[0,0.5],[1,0.5]];portConstraint=eastwest;top=0;left=0;right=0;bottom=1;" vertex="1" parent="i0ZZUqnmRl0zCU0rfzQK-148">
          <mxGeometry y="240" width="180" height="30" as="geometry" />
        </mxCell>
        <mxCell id="i0ZZUqnmRl0zCU0rfzQK-171" style="shape=partialRectangle;connectable=0;fillColor=none;top=0;left=0;bottom=0;right=0;fontStyle=1;overflow=hidden;whiteSpace=wrap;html=1;" vertex="1" parent="i0ZZUqnmRl0zCU0rfzQK-170">
          <mxGeometry width="30" height="30" as="geometry">
            <mxRectangle width="30" height="30" as="alternateBounds" />
          </mxGeometry>
        </mxCell>
        <mxCell id="i0ZZUqnmRl0zCU0rfzQK-172" value="ProfesiÃ³n" style="shape=partialRectangle;connectable=0;fillColor=none;top=0;left=0;bottom=0;right=0;align=left;spacingLeft=6;fontStyle=0;overflow=hidden;whiteSpace=wrap;html=1;" vertex="1" parent="i0ZZUqnmRl0zCU0rfzQK-170">
          <mxGeometry x="30" width="150" height="30" as="geometry">
            <mxRectangle width="150" height="30" as="alternateBounds" />
          </mxGeometry>
        </mxCell>
        <mxCell id="i0ZZUqnmRl0zCU0rfzQK-173" style="shape=tableRow;horizontal=0;startSize=0;swimlaneHead=0;swimlaneBody=0;fillColor=none;collapsible=0;dropTarget=0;points=[[0,0.5],[1,0.5]];portConstraint=eastwest;top=0;left=0;right=0;bottom=1;" vertex="1" parent="i0ZZUqnmRl0zCU0rfzQK-148">
          <mxGeometry y="270" width="180" height="30" as="geometry" />
        </mxCell>
        <mxCell id="i0ZZUqnmRl0zCU0rfzQK-174" style="shape=partialRectangle;connectable=0;fillColor=none;top=0;left=0;bottom=0;right=0;fontStyle=1;overflow=hidden;whiteSpace=wrap;html=1;" vertex="1" parent="i0ZZUqnmRl0zCU0rfzQK-173">
          <mxGeometry width="30" height="30" as="geometry">
            <mxRectangle width="30" height="30" as="alternateBounds" />
          </mxGeometry>
        </mxCell>
        <mxCell id="i0ZZUqnmRl0zCU0rfzQK-175" value="Entrada (gestiÃ³n)" style="shape=partialRectangle;connectable=0;fillColor=none;top=0;left=0;bottom=0;right=0;align=left;spacingLeft=6;fontStyle=0;overflow=hidden;whiteSpace=wrap;html=1;" vertex="1" parent="i0ZZUqnmRl0zCU0rfzQK-173">
          <mxGeometry x="30" width="150" height="30" as="geometry">
            <mxRectangle width="150" height="30" as="alternateBounds" />
          </mxGeometry>
        </mxCell>
        <mxCell id="i0ZZUqnmRl0zCU0rfzQK-176" style="shape=tableRow;horizontal=0;startSize=0;swimlaneHead=0;swimlaneBody=0;fillColor=none;collapsible=0;dropTarget=0;points=[[0,0.5],[1,0.5]];portConstraint=eastwest;top=0;left=0;right=0;bottom=1;" vertex="1" parent="i0ZZUqnmRl0zCU0rfzQK-148">
          <mxGeometry y="300" width="180" height="30" as="geometry" />
        </mxCell>
        <mxCell id="i0ZZUqnmRl0zCU0rfzQK-177" style="shape=partialRectangle;connectable=0;fillColor=none;top=0;left=0;bottom=0;right=0;fontStyle=1;overflow=hidden;whiteSpace=wrap;html=1;" vertex="1" parent="i0ZZUqnmRl0zCU0rfzQK-176">
          <mxGeometry width="30" height="30" as="geometry">
            <mxRectangle width="30" height="30" as="alternateBounds" />
          </mxGeometry>
        </mxCell>
        <mxCell id="i0ZZUqnmRl0zCU0rfzQK-178" value="TitulaciÃ³n (investigaciÃ³n)" style="shape=partialRectangle;connectable=0;fillColor=none;top=0;left=0;bottom=0;right=0;align=left;spacingLeft=6;fontStyle=0;overflow=hidden;whiteSpace=wrap;html=1;" vertex="1" parent="i0ZZUqnmRl0zCU0rfzQK-176">
          <mxGeometry x="30" width="150" height="30" as="geometry">
            <mxRectangle width="150" height="30" as="alternateBounds" />
          </mxGeometry>
        </mxCell>
        <mxCell id="i0ZZUqnmRl0zCU0rfzQK-179" value="Trabaja" style="shape=table;startSize=30;container=1;collapsible=1;childLayout=tableLayout;fixedRows=1;rowLines=0;fontStyle=1;align=center;resizeLast=1;html=1;whiteSpace=wrap;" vertex="1" parent="1">
          <mxGeometry x="1202" y="50" width="180" height="90" as="geometry" />
        </mxCell>
        <mxCell id="i0ZZUqnmRl0zCU0rfzQK-180" value="" style="shape=tableRow;horizontal=0;startSize=0;swimlaneHead=0;swimlaneBody=0;fillColor=none;collapsible=0;dropTarget=0;points=[[0,0.5],[1,0.5]];portConstraint=eastwest;top=0;left=0;right=0;bottom=0;html=1;" vertex="1" parent="i0ZZUqnmRl0zCU0rfzQK-179">
          <mxGeometry y="30" width="180" height="30" as="geometry" />
        </mxCell>
        <mxCell id="i0ZZUqnmRl0zCU0rfzQK-181" value="PK,FK1" style="shape=partialRectangle;connectable=0;fillColor=none;top=0;left=0;bottom=0;right=0;fontStyle=1;overflow=hidden;html=1;whiteSpace=wrap;" vertex="1" parent="i0ZZUqnmRl0zCU0rfzQK-180">
          <mxGeometry width="60" height="30" as="geometry">
            <mxRectangle width="60" height="30" as="alternateBounds" />
          </mxGeometry>
        </mxCell>
        <mxCell id="i0ZZUqnmRl0zCU0rfzQK-182" value="Nombre Parque" style="shape=partialRectangle;connectable=0;fillColor=none;top=0;left=0;bottom=0;right=0;align=left;spacingLeft=6;fontStyle=5;overflow=hidden;html=1;whiteSpace=wrap;" vertex="1" parent="i0ZZUqnmRl0zCU0rfzQK-180">
          <mxGeometry x="60" width="120" height="30" as="geometry">
            <mxRectangle width="120" height="30" as="alternateBounds" />
          </mxGeometry>
        </mxCell>
        <mxCell id="i0ZZUqnmRl0zCU0rfzQK-183" value="" style="shape=tableRow;horizontal=0;startSize=0;swimlaneHead=0;swimlaneBody=0;fillColor=none;collapsible=0;dropTarget=0;points=[[0,0.5],[1,0.5]];portConstraint=eastwest;top=0;left=0;right=0;bottom=1;html=1;" vertex="1" parent="i0ZZUqnmRl0zCU0rfzQK-179">
          <mxGeometry y="60" width="180" height="30" as="geometry" />
        </mxCell>
        <mxCell id="i0ZZUqnmRl0zCU0rfzQK-184" value="PK,FK2" style="shape=partialRectangle;connectable=0;fillColor=none;top=0;left=0;bottom=0;right=0;fontStyle=1;overflow=hidden;html=1;whiteSpace=wrap;" vertex="1" parent="i0ZZUqnmRl0zCU0rfzQK-183">
          <mxGeometry width="60" height="30" as="geometry">
            <mxRectangle width="60" height="30" as="alternateBounds" />
          </mxGeometry>
        </mxCell>
        <mxCell id="i0ZZUqnmRl0zCU0rfzQK-185" value="DNI" style="shape=partialRectangle;connectable=0;fillColor=none;top=0;left=0;bottom=0;right=0;align=left;spacingLeft=6;fontStyle=5;overflow=hidden;html=1;whiteSpace=wrap;" vertex="1" parent="i0ZZUqnmRl0zCU0rfzQK-183">
          <mxGeometry x="60" width="120" height="30" as="geometry">
            <mxRectangle width="120" height="30" as="alternateBounds" />
          </mxGeometry>
        </mxCell>
        <mxCell id="i0ZZUqnmRl0zCU0rfzQK-186" style="edgeStyle=orthogonalEdgeStyle;rounded=0;orthogonalLoop=1;jettySize=auto;html=1;entryX=0;entryY=0.5;entryDx=0;entryDy=0;" edge="1" parent="1" source="i0ZZUqnmRl0zCU0rfzQK-149" target="i0ZZUqnmRl0zCU0rfzQK-183">
          <mxGeometry relative="1" as="geometry">
            <Array as="points">
              <mxPoint x="1169" y="425" />
              <mxPoint x="1169" y="125" />
            </Array>
          </mxGeometry>
        </mxCell>
        <mxCell id="i0ZZUqnmRl0zCU0rfzQK-187" value="M" style="text;strokeColor=none;fillColor=none;spacingLeft=4;spacingRight=4;overflow=hidden;rotatable=0;points=[[0,0.5],[1,0.5]];portConstraint=eastwest;fontSize=12;whiteSpace=wrap;html=1;" vertex="1" parent="1">
          <mxGeometry x="1385" y="60" width="40" height="30" as="geometry" />
        </mxCell>
        <mxCell id="i0ZZUqnmRl0zCU0rfzQK-188" value="M" style="text;strokeColor=none;fillColor=none;spacingLeft=4;spacingRight=4;overflow=hidden;rotatable=0;points=[[0,0.5],[1,0.5]];portConstraint=eastwest;fontSize=12;whiteSpace=wrap;html=1;" vertex="1" parent="1">
          <mxGeometry x="1169" y="90" width="40" height="30" as="geometry" />
        </mxCell>
        <mxCell id="i0ZZUqnmRl0zCU0rfzQK-189" value="Areas" style="shape=table;startSize=30;container=1;collapsible=1;childLayout=tableLayout;fixedRows=1;rowLines=0;fontStyle=1;align=center;resizeLast=1;html=1;" vertex="1" parent="1">
          <mxGeometry x="1586" y="280" width="180" height="90" as="geometry" />
        </mxCell>
        <mxCell id="i0ZZUqnmRl0zCU0rfzQK-190" value="" style="shape=tableRow;horizontal=0;startSize=0;swimlaneHead=0;swimlaneBody=0;fillColor=none;collapsible=0;dropTarget=0;points=[[0,0.5],[1,0.5]];portConstraint=eastwest;top=0;left=0;right=0;bottom=1;" vertex="1" parent="i0ZZUqnmRl0zCU0rfzQK-189">
          <mxGeometry y="30" width="180" height="30" as="geometry" />
        </mxCell>
        <mxCell id="i0ZZUqnmRl0zCU0rfzQK-191" value="PK" style="shape=partialRectangle;connectable=0;fillColor=none;top=0;left=0;bottom=0;right=0;fontStyle=1;overflow=hidden;whiteSpace=wrap;html=1;" vertex="1" parent="i0ZZUqnmRl0zCU0rfzQK-190">
          <mxGeometry width="30" height="30" as="geometry">
            <mxRectangle width="30" height="30" as="alternateBounds" />
          </mxGeometry>
        </mxCell>
        <mxCell id="i0ZZUqnmRl0zCU0rfzQK-192" value="Nombre Areas" style="shape=partialRectangle;connectable=0;fillColor=none;top=0;left=0;bottom=0;right=0;align=left;spacingLeft=6;fontStyle=5;overflow=hidden;whiteSpace=wrap;html=1;" vertex="1" parent="i0ZZUqnmRl0zCU0rfzQK-190">
          <mxGeometry x="30" width="150" height="30" as="geometry">
            <mxRectangle width="150" height="30" as="alternateBounds" />
          </mxGeometry>
        </mxCell>
        <mxCell id="i0ZZUqnmRl0zCU0rfzQK-193" style="shape=tableRow;horizontal=0;startSize=0;swimlaneHead=0;swimlaneBody=0;fillColor=none;collapsible=0;dropTarget=0;points=[[0,0.5],[1,0.5]];portConstraint=eastwest;top=0;left=0;right=0;bottom=1;" vertex="1" parent="i0ZZUqnmRl0zCU0rfzQK-189">
          <mxGeometry y="60" width="180" height="30" as="geometry" />
        </mxCell>
        <mxCell id="i0ZZUqnmRl0zCU0rfzQK-194" value="FK" style="shape=partialRectangle;connectable=0;fillColor=none;top=0;left=0;bottom=0;right=0;fontStyle=1;overflow=hidden;whiteSpace=wrap;html=1;" vertex="1" parent="i0ZZUqnmRl0zCU0rfzQK-193">
          <mxGeometry width="30" height="30" as="geometry">
            <mxRectangle width="30" height="30" as="alternateBounds" />
          </mxGeometry>
        </mxCell>
        <mxCell id="i0ZZUqnmRl0zCU0rfzQK-195" value="Nombre Parque" style="shape=partialRectangle;connectable=0;fillColor=none;top=0;left=0;bottom=0;right=0;align=left;spacingLeft=6;fontStyle=5;overflow=hidden;whiteSpace=wrap;html=1;" vertex="1" parent="i0ZZUqnmRl0zCU0rfzQK-193">
          <mxGeometry x="30" width="150" height="30" as="geometry">
            <mxRectangle width="150" height="30" as="alternateBounds" />
          </mxGeometry>
        </mxCell>
        <mxCell id="i0ZZUqnmRl0zCU0rfzQK-196" value="1" style="text;strokeColor=none;fillColor=none;spacingLeft=4;spacingRight=4;overflow=hidden;rotatable=0;points=[[0,0.5],[1,0.5]];portConstraint=eastwest;fontSize=12;whiteSpace=wrap;html=1;" vertex="1" parent="1">
          <mxGeometry x="1709" y="120" width="40" height="30" as="geometry" />
        </mxCell>
        <mxCell id="i0ZZUqnmRl0zCU0rfzQK-197" value="1" style="text;strokeColor=none;fillColor=none;spacingLeft=4;spacingRight=4;overflow=hidden;rotatable=0;points=[[0,0.5],[1,0.5]];portConstraint=eastwest;fontSize=12;whiteSpace=wrap;html=1;" vertex="1" parent="1">
          <mxGeometry x="2079" y="165" width="40" height="30" as="geometry" />
        </mxCell>
        <mxCell id="i0ZZUqnmRl0zCU0rfzQK-198" value="1" style="text;strokeColor=none;fillColor=none;spacingLeft=4;spacingRight=4;overflow=hidden;rotatable=0;points=[[0,0.5],[1,0.5]];portConstraint=eastwest;fontSize=12;whiteSpace=wrap;html=1;" vertex="1" parent="1">
          <mxGeometry x="1509" y="120" width="40" height="30" as="geometry" />
        </mxCell>
        <mxCell id="i0ZZUqnmRl0zCU0rfzQK-199" value="1" style="text;strokeColor=none;fillColor=none;spacingLeft=4;spacingRight=4;overflow=hidden;rotatable=0;points=[[0,0.5],[1,0.5]];portConstraint=eastwest;fontSize=12;whiteSpace=wrap;html=1;" vertex="1" parent="1">
          <mxGeometry x="1492" y="165" width="40" height="30" as="geometry" />
        </mxCell>
        <mxCell id="i0ZZUqnmRl0zCU0rfzQK-200" value="M" style="text;strokeColor=none;fillColor=none;spacingLeft=4;spacingRight=4;overflow=hidden;rotatable=0;points=[[0,0.5],[1,0.5]];portConstraint=eastwest;fontSize=12;whiteSpace=wrap;html=1;" vertex="1" parent="1">
          <mxGeometry x="1713" y="180" width="40" height="30" as="geometry" />
        </mxCell>
        <mxCell id="i0ZZUqnmRl0zCU0rfzQK-201" style="edgeStyle=orthogonalEdgeStyle;rounded=0;orthogonalLoop=1;jettySize=auto;html=1;exitX=1;exitY=0.5;exitDx=0;exitDy=0;" edge="1" parent="1" source="i0ZZUqnmRl0zCU0rfzQK-193" target="i0ZZUqnmRl0zCU0rfzQK-134">
          <mxGeometry relative="1" as="geometry" />
        </mxCell>
        <mxCell id="i0ZZUqnmRl0zCU0rfzQK-202" style="edgeStyle=orthogonalEdgeStyle;rounded=0;orthogonalLoop=1;jettySize=auto;html=1;entryX=1;entryY=0.5;entryDx=0;entryDy=0;" edge="1" parent="1" source="i0ZZUqnmRl0zCU0rfzQK-190" target="i0ZZUqnmRl0zCU0rfzQK-152">
          <mxGeometry relative="1" as="geometry" />
        </mxCell>
        <mxCell id="i0ZZUqnmRl0zCU0rfzQK-203" value="M" style="text;strokeColor=none;fillColor=none;spacingLeft=4;spacingRight=4;overflow=hidden;rotatable=0;points=[[0,0.5],[1,0.5]];portConstraint=eastwest;fontSize=12;whiteSpace=wrap;html=1;" vertex="1" parent="1">
          <mxGeometry x="1369" y="455" width="40" height="30" as="geometry" />
        </mxCell>
        <mxCell id="i0ZZUqnmRl0zCU0rfzQK-204" value="1" style="text;strokeColor=none;fillColor=none;spacingLeft=4;spacingRight=4;overflow=hidden;rotatable=0;points=[[0,0.5],[1,0.5]];portConstraint=eastwest;fontSize=12;whiteSpace=wrap;html=1;" vertex="1" parent="1">
          <mxGeometry x="1562" y="330" width="40" height="30" as="geometry" />
        </mxCell>
        <mxCell id="i0ZZUqnmRl0zCU0rfzQK-205" value="Mantenimiento" style="shape=table;startSize=30;container=1;collapsible=1;childLayout=tableLayout;fixedRows=1;rowLines=0;fontStyle=1;align=center;resizeLast=1;html=1;" vertex="1" parent="1">
          <mxGeometry x="1272" y="210" width="180" height="90" as="geometry" />
        </mxCell>
        <mxCell id="i0ZZUqnmRl0zCU0rfzQK-206" value="" style="shape=tableRow;horizontal=0;startSize=0;swimlaneHead=0;swimlaneBody=0;fillColor=none;collapsible=0;dropTarget=0;points=[[0,0.5],[1,0.5]];portConstraint=eastwest;top=0;left=0;right=0;bottom=1;" vertex="1" parent="i0ZZUqnmRl0zCU0rfzQK-205">
          <mxGeometry y="30" width="180" height="30" as="geometry" />
        </mxCell>
        <mxCell id="i0ZZUqnmRl0zCU0rfzQK-207" value="PK,FK 1" style="shape=partialRectangle;connectable=0;fillColor=none;top=0;left=0;bottom=0;right=0;fontStyle=1;overflow=hidden;whiteSpace=wrap;html=1;" vertex="1" parent="i0ZZUqnmRl0zCU0rfzQK-206">
          <mxGeometry width="63" height="30" as="geometry">
            <mxRectangle width="63" height="30" as="alternateBounds" />
          </mxGeometry>
        </mxCell>
        <mxCell id="i0ZZUqnmRl0zCU0rfzQK-208" value="Nombre Areas" style="shape=partialRectangle;connectable=0;fillColor=none;top=0;left=0;bottom=0;right=0;align=left;spacingLeft=6;fontStyle=5;overflow=hidden;whiteSpace=wrap;html=1;" vertex="1" parent="i0ZZUqnmRl0zCU0rfzQK-206">
          <mxGeometry x="63" width="117" height="30" as="geometry">
            <mxRectangle width="117" height="30" as="alternateBounds" />
          </mxGeometry>
        </mxCell>
        <mxCell id="i0ZZUqnmRl0zCU0rfzQK-209" style="shape=tableRow;horizontal=0;startSize=0;swimlaneHead=0;swimlaneBody=0;fillColor=none;collapsible=0;dropTarget=0;points=[[0,0.5],[1,0.5]];portConstraint=eastwest;top=0;left=0;right=0;bottom=1;" vertex="1" parent="i0ZZUqnmRl0zCU0rfzQK-205">
          <mxGeometry y="60" width="180" height="30" as="geometry" />
        </mxCell>
        <mxCell id="i0ZZUqnmRl0zCU0rfzQK-210" value="PK,FK2" style="shape=partialRectangle;connectable=0;fillColor=none;top=0;left=0;bottom=0;right=0;fontStyle=1;overflow=hidden;whiteSpace=wrap;html=1;" vertex="1" parent="i0ZZUqnmRl0zCU0rfzQK-209">
          <mxGeometry width="63" height="30" as="geometry">
            <mxRectangle width="63" height="30" as="alternateBounds" />
          </mxGeometry>
        </mxCell>
        <mxCell id="i0ZZUqnmRl0zCU0rfzQK-211" value="DNI" style="shape=partialRectangle;connectable=0;fillColor=none;top=0;left=0;bottom=0;right=0;align=left;spacingLeft=6;fontStyle=5;overflow=hidden;whiteSpace=wrap;html=1;" vertex="1" parent="i0ZZUqnmRl0zCU0rfzQK-209">
          <mxGeometry x="63" width="117" height="30" as="geometry">
            <mxRectangle width="117" height="30" as="alternateBounds" />
          </mxGeometry>
        </mxCell>
        <mxCell id="i0ZZUqnmRl0zCU0rfzQK-212" style="edgeStyle=orthogonalEdgeStyle;rounded=0;orthogonalLoop=1;jettySize=auto;html=1;entryX=0;entryY=0.5;entryDx=0;entryDy=0;" edge="1" parent="1" source="i0ZZUqnmRl0zCU0rfzQK-149" target="i0ZZUqnmRl0zCU0rfzQK-209">
          <mxGeometry relative="1" as="geometry" />
        </mxCell>
        <mxCell id="i0ZZUqnmRl0zCU0rfzQK-213" value="1" style="text;strokeColor=none;fillColor=none;spacingLeft=4;spacingRight=4;overflow=hidden;rotatable=0;points=[[0,0.5],[1,0.5]];portConstraint=eastwest;fontSize=12;whiteSpace=wrap;html=1;" vertex="1" parent="1">
          <mxGeometry x="1385" y="400" width="40" height="30" as="geometry" />
        </mxCell>
        <mxCell id="i0ZZUqnmRl0zCU0rfzQK-214" style="edgeStyle=orthogonalEdgeStyle;rounded=0;orthogonalLoop=1;jettySize=auto;html=1;entryX=1;entryY=0.5;entryDx=0;entryDy=0;exitX=0.002;exitY=0.276;exitDx=0;exitDy=0;exitPerimeter=0;" edge="1" parent="1" source="i0ZZUqnmRl0zCU0rfzQK-190" target="i0ZZUqnmRl0zCU0rfzQK-209">
          <mxGeometry relative="1" as="geometry" />
        </mxCell>
        <mxCell id="i0ZZUqnmRl0zCU0rfzQK-215" value="1" style="text;strokeColor=none;fillColor=none;spacingLeft=4;spacingRight=4;overflow=hidden;rotatable=0;points=[[0,0.5],[1,0.5]];portConstraint=eastwest;fontSize=12;whiteSpace=wrap;html=1;" vertex="1" parent="1">
          <mxGeometry x="1562" y="290" width="40" height="30" as="geometry" />
        </mxCell>
        <mxCell id="i0ZZUqnmRl0zCU0rfzQK-216" value="M" style="text;strokeColor=none;fillColor=none;spacingLeft=4;spacingRight=4;overflow=hidden;rotatable=0;points=[[0,0.5],[1,0.5]];portConstraint=eastwest;fontSize=12;whiteSpace=wrap;html=1;" vertex="1" parent="1">
          <mxGeometry x="1459" y="250" width="40" height="30" as="geometry" />
        </mxCell>
        <mxCell id="i0ZZUqnmRl0zCU0rfzQK-217" value="M" style="text;strokeColor=none;fillColor=none;spacingLeft=4;spacingRight=4;overflow=hidden;rotatable=0;points=[[0,0.5],[1,0.5]];portConstraint=eastwest;fontSize=12;whiteSpace=wrap;html=1;" vertex="1" parent="1">
          <mxGeometry x="1239" y="250" width="40" height="30" as="geometry" />
        </mxCell>
        <mxCell id="i0ZZUqnmRl0zCU0rfzQK-218" value="Especies" style="shape=table;startSize=30;container=1;collapsible=1;childLayout=tableLayout;fixedRows=1;rowLines=0;fontStyle=1;align=center;resizeLast=1;html=1;" vertex="1" parent="1">
          <mxGeometry x="1949" y="550" width="180" height="240" as="geometry" />
        </mxCell>
        <mxCell id="i0ZZUqnmRl0zCU0rfzQK-219" value="" style="shape=tableRow;horizontal=0;startSize=0;swimlaneHead=0;swimlaneBody=0;fillColor=none;collapsible=0;dropTarget=0;points=[[0,0.5],[1,0.5]];portConstraint=eastwest;top=0;left=0;right=0;bottom=1;" vertex="1" parent="i0ZZUqnmRl0zCU0rfzQK-218">
          <mxGeometry y="30" width="180" height="30" as="geometry" />
        </mxCell>
        <mxCell id="i0ZZUqnmRl0zCU0rfzQK-220" value="PK" style="shape=partialRectangle;connectable=0;fillColor=none;top=0;left=0;bottom=0;right=0;fontStyle=1;overflow=hidden;whiteSpace=wrap;html=1;" vertex="1" parent="i0ZZUqnmRl0zCU0rfzQK-219">
          <mxGeometry width="30" height="30" as="geometry">
            <mxRectangle width="30" height="30" as="alternateBounds" />
          </mxGeometry>
        </mxCell>
        <mxCell id="i0ZZUqnmRl0zCU0rfzQK-221" value="Nombre CientÃ­fico" style="shape=partialRectangle;connectable=0;fillColor=none;top=0;left=0;bottom=0;right=0;align=left;spacingLeft=6;fontStyle=5;overflow=hidden;whiteSpace=wrap;html=1;" vertex="1" parent="i0ZZUqnmRl0zCU0rfzQK-219">
          <mxGeometry x="30" width="150" height="30" as="geometry">
            <mxRectangle width="150" height="30" as="alternateBounds" />
          </mxGeometry>
        </mxCell>
        <mxCell id="i0ZZUqnmRl0zCU0rfzQK-222" style="shape=tableRow;horizontal=0;startSize=0;swimlaneHead=0;swimlaneBody=0;fillColor=none;collapsible=0;dropTarget=0;points=[[0,0.5],[1,0.5]];portConstraint=eastwest;top=0;left=0;right=0;bottom=1;" vertex="1" parent="i0ZZUqnmRl0zCU0rfzQK-218">
          <mxGeometry y="60" width="180" height="30" as="geometry" />
        </mxCell>
        <mxCell id="i0ZZUqnmRl0zCU0rfzQK-223" style="shape=partialRectangle;connectable=0;fillColor=none;top=0;left=0;bottom=0;right=0;fontStyle=1;overflow=hidden;whiteSpace=wrap;html=1;" vertex="1" parent="i0ZZUqnmRl0zCU0rfzQK-222">
          <mxGeometry width="30" height="30" as="geometry">
            <mxRectangle width="30" height="30" as="alternateBounds" />
          </mxGeometry>
        </mxCell>
        <mxCell id="i0ZZUqnmRl0zCU0rfzQK-224" value="Nombre vulgar" style="shape=partialRectangle;connectable=0;fillColor=none;top=0;left=0;bottom=0;right=0;align=left;spacingLeft=6;fontStyle=0;overflow=hidden;whiteSpace=wrap;html=1;" vertex="1" parent="i0ZZUqnmRl0zCU0rfzQK-222">
          <mxGeometry x="30" width="150" height="30" as="geometry">
            <mxRectangle width="150" height="30" as="alternateBounds" />
          </mxGeometry>
        </mxCell>
        <mxCell id="i0ZZUqnmRl0zCU0rfzQK-225" style="shape=tableRow;horizontal=0;startSize=0;swimlaneHead=0;swimlaneBody=0;fillColor=none;collapsible=0;dropTarget=0;points=[[0,0.5],[1,0.5]];portConstraint=eastwest;top=0;left=0;right=0;bottom=1;" vertex="1" parent="i0ZZUqnmRl0zCU0rfzQK-218">
          <mxGeometry y="90" width="180" height="30" as="geometry" />
        </mxCell>
        <mxCell id="i0ZZUqnmRl0zCU0rfzQK-226" style="shape=partialRectangle;connectable=0;fillColor=none;top=0;left=0;bottom=0;right=0;fontStyle=1;overflow=hidden;whiteSpace=wrap;html=1;" vertex="1" parent="i0ZZUqnmRl0zCU0rfzQK-225">
          <mxGeometry width="30" height="30" as="geometry">
            <mxRectangle width="30" height="30" as="alternateBounds" />
          </mxGeometry>
        </mxCell>
        <mxCell id="i0ZZUqnmRl0zCU0rfzQK-227" value="Tipo" style="shape=partialRectangle;connectable=0;fillColor=none;top=0;left=0;bottom=0;right=0;align=left;spacingLeft=6;fontStyle=0;overflow=hidden;whiteSpace=wrap;html=1;" vertex="1" parent="i0ZZUqnmRl0zCU0rfzQK-225">
          <mxGeometry x="30" width="150" height="30" as="geometry">
            <mxRectangle width="150" height="30" as="alternateBounds" />
          </mxGeometry>
        </mxCell>
        <mxCell id="i0ZZUqnmRl0zCU0rfzQK-228" style="shape=tableRow;horizontal=0;startSize=0;swimlaneHead=0;swimlaneBody=0;fillColor=none;collapsible=0;dropTarget=0;points=[[0,0.5],[1,0.5]];portConstraint=eastwest;top=0;left=0;right=0;bottom=1;" vertex="1" parent="i0ZZUqnmRl0zCU0rfzQK-218">
          <mxGeometry y="120" width="180" height="30" as="geometry" />
        </mxCell>
        <mxCell id="i0ZZUqnmRl0zCU0rfzQK-229" style="shape=partialRectangle;connectable=0;fillColor=none;top=0;left=0;bottom=0;right=0;fontStyle=1;overflow=hidden;whiteSpace=wrap;html=1;" vertex="1" parent="i0ZZUqnmRl0zCU0rfzQK-228">
          <mxGeometry width="30" height="30" as="geometry">
            <mxRectangle width="30" height="30" as="alternateBounds" />
          </mxGeometry>
        </mxCell>
        <mxCell id="i0ZZUqnmRl0zCU0rfzQK-230" value="FloraciÃ³n" style="shape=partialRectangle;connectable=0;fillColor=none;top=0;left=0;bottom=0;right=0;align=left;spacingLeft=6;fontStyle=0;overflow=hidden;whiteSpace=wrap;html=1;" vertex="1" parent="i0ZZUqnmRl0zCU0rfzQK-228">
          <mxGeometry x="30" width="150" height="30" as="geometry">
            <mxRectangle width="150" height="30" as="alternateBounds" />
          </mxGeometry>
        </mxCell>
        <mxCell id="i0ZZUqnmRl0zCU0rfzQK-231" style="shape=tableRow;horizontal=0;startSize=0;swimlaneHead=0;swimlaneBody=0;fillColor=none;collapsible=0;dropTarget=0;points=[[0,0.5],[1,0.5]];portConstraint=eastwest;top=0;left=0;right=0;bottom=1;" vertex="1" parent="i0ZZUqnmRl0zCU0rfzQK-218">
          <mxGeometry y="150" width="180" height="30" as="geometry" />
        </mxCell>
        <mxCell id="i0ZZUqnmRl0zCU0rfzQK-232" style="shape=partialRectangle;connectable=0;fillColor=none;top=0;left=0;bottom=0;right=0;fontStyle=1;overflow=hidden;whiteSpace=wrap;html=1;" vertex="1" parent="i0ZZUqnmRl0zCU0rfzQK-231">
          <mxGeometry width="30" height="30" as="geometry">
            <mxRectangle width="30" height="30" as="alternateBounds" />
          </mxGeometry>
        </mxCell>
        <mxCell id="i0ZZUqnmRl0zCU0rfzQK-233" value="Periodo" style="shape=partialRectangle;connectable=0;fillColor=none;top=0;left=0;bottom=0;right=0;align=left;spacingLeft=6;fontStyle=0;overflow=hidden;whiteSpace=wrap;html=1;" vertex="1" parent="i0ZZUqnmRl0zCU0rfzQK-231">
          <mxGeometry x="30" width="150" height="30" as="geometry">
            <mxRectangle width="150" height="30" as="alternateBounds" />
          </mxGeometry>
        </mxCell>
        <mxCell id="i0ZZUqnmRl0zCU0rfzQK-234" style="shape=tableRow;horizontal=0;startSize=0;swimlaneHead=0;swimlaneBody=0;fillColor=none;collapsible=0;dropTarget=0;points=[[0,0.5],[1,0.5]];portConstraint=eastwest;top=0;left=0;right=0;bottom=1;" vertex="1" parent="i0ZZUqnmRl0zCU0rfzQK-218">
          <mxGeometry y="180" width="180" height="30" as="geometry" />
        </mxCell>
        <mxCell id="i0ZZUqnmRl0zCU0rfzQK-235" style="shape=partialRectangle;connectable=0;fillColor=none;top=0;left=0;bottom=0;right=0;fontStyle=1;overflow=hidden;whiteSpace=wrap;html=1;" vertex="1" parent="i0ZZUqnmRl0zCU0rfzQK-234">
          <mxGeometry width="30" height="30" as="geometry">
            <mxRectangle width="30" height="30" as="alternateBounds" />
          </mxGeometry>
        </mxCell>
        <mxCell id="i0ZZUqnmRl0zCU0rfzQK-236" value="Tipo de allimentaciÃ³n" style="shape=partialRectangle;connectable=0;fillColor=none;top=0;left=0;bottom=0;right=0;align=left;spacingLeft=6;fontStyle=0;overflow=hidden;whiteSpace=wrap;html=1;" vertex="1" parent="i0ZZUqnmRl0zCU0rfzQK-234">
          <mxGeometry x="30" width="150" height="30" as="geometry">
            <mxRectangle width="150" height="30" as="alternateBounds" />
          </mxGeometry>
        </mxCell>
        <mxCell id="i0ZZUqnmRl0zCU0rfzQK-237" style="shape=tableRow;horizontal=0;startSize=0;swimlaneHead=0;swimlaneBody=0;fillColor=none;collapsible=0;dropTarget=0;points=[[0,0.5],[1,0.5]];portConstraint=eastwest;top=0;left=0;right=0;bottom=1;" vertex="1" parent="i0ZZUqnmRl0zCU0rfzQK-218">
          <mxGeometry y="210" width="180" height="30" as="geometry" />
        </mxCell>
        <mxCell id="i0ZZUqnmRl0zCU0rfzQK-238" style="shape=partialRectangle;connectable=0;fillColor=none;top=0;left=0;bottom=0;right=0;fontStyle=1;overflow=hidden;whiteSpace=wrap;html=1;" vertex="1" parent="i0ZZUqnmRl0zCU0rfzQK-237">
          <mxGeometry width="30" height="30" as="geometry">
            <mxRectangle width="30" height="30" as="alternateBounds" />
          </mxGeometry>
        </mxCell>
        <mxCell id="i0ZZUqnmRl0zCU0rfzQK-239" value="Periodo de celo" style="shape=partialRectangle;connectable=0;fillColor=none;top=0;left=0;bottom=0;right=0;align=left;spacingLeft=6;fontStyle=0;overflow=hidden;whiteSpace=wrap;html=1;" vertex="1" parent="i0ZZUqnmRl0zCU0rfzQK-237">
          <mxGeometry x="30" width="150" height="30" as="geometry">
            <mxRectangle width="150" height="30" as="alternateBounds" />
          </mxGeometry>
        </mxCell>
        <mxCell id="i0ZZUqnmRl0zCU0rfzQK-240" value="Proyecto" style="shape=table;startSize=30;container=1;collapsible=1;childLayout=tableLayout;fixedRows=1;rowLines=0;fontStyle=1;align=center;resizeLast=1;html=1;" vertex="1" parent="1">
          <mxGeometry x="1573" y="830" width="180" height="120" as="geometry" />
        </mxCell>
        <mxCell id="i0ZZUqnmRl0zCU0rfzQK-241" value="" style="shape=tableRow;horizontal=0;startSize=0;swimlaneHead=0;swimlaneBody=0;fillColor=none;collapsible=0;dropTarget=0;points=[[0,0.5],[1,0.5]];portConstraint=eastwest;top=0;left=0;right=0;bottom=1;" vertex="1" parent="i0ZZUqnmRl0zCU0rfzQK-240">
          <mxGeometry y="30" width="180" height="30" as="geometry" />
        </mxCell>
        <mxCell id="i0ZZUqnmRl0zCU0rfzQK-242" value="PK" style="shape=partialRectangle;connectable=0;fillColor=none;top=0;left=0;bottom=0;right=0;fontStyle=1;overflow=hidden;whiteSpace=wrap;html=1;" vertex="1" parent="i0ZZUqnmRl0zCU0rfzQK-241">
          <mxGeometry width="30" height="30" as="geometry">
            <mxRectangle width="30" height="30" as="alternateBounds" />
          </mxGeometry>
        </mxCell>
        <mxCell id="i0ZZUqnmRl0zCU0rfzQK-243" value="CÃ³digo Proyecto" style="shape=partialRectangle;connectable=0;fillColor=none;top=0;left=0;bottom=0;right=0;align=left;spacingLeft=6;fontStyle=5;overflow=hidden;whiteSpace=wrap;html=1;" vertex="1" parent="i0ZZUqnmRl0zCU0rfzQK-241">
          <mxGeometry x="30" width="150" height="30" as="geometry">
            <mxRectangle width="150" height="30" as="alternateBounds" />
          </mxGeometry>
        </mxCell>
        <mxCell id="i0ZZUqnmRl0zCU0rfzQK-244" style="shape=tableRow;horizontal=0;startSize=0;swimlaneHead=0;swimlaneBody=0;fillColor=none;collapsible=0;dropTarget=0;points=[[0,0.5],[1,0.5]];portConstraint=eastwest;top=0;left=0;right=0;bottom=1;" vertex="1" parent="i0ZZUqnmRl0zCU0rfzQK-240">
          <mxGeometry y="60" width="180" height="30" as="geometry" />
        </mxCell>
        <mxCell id="i0ZZUqnmRl0zCU0rfzQK-245" style="shape=partialRectangle;connectable=0;fillColor=none;top=0;left=0;bottom=0;right=0;fontStyle=1;overflow=hidden;whiteSpace=wrap;html=1;" vertex="1" parent="i0ZZUqnmRl0zCU0rfzQK-244">
          <mxGeometry width="30" height="30" as="geometry">
            <mxRectangle width="30" height="30" as="alternateBounds" />
          </mxGeometry>
        </mxCell>
        <mxCell id="i0ZZUqnmRl0zCU0rfzQK-246" value="Presupuesto" style="shape=partialRectangle;connectable=0;fillColor=none;top=0;left=0;bottom=0;right=0;align=left;spacingLeft=6;fontStyle=0;overflow=hidden;whiteSpace=wrap;html=1;" vertex="1" parent="i0ZZUqnmRl0zCU0rfzQK-244">
          <mxGeometry x="30" width="150" height="30" as="geometry">
            <mxRectangle width="150" height="30" as="alternateBounds" />
          </mxGeometry>
        </mxCell>
        <mxCell id="i0ZZUqnmRl0zCU0rfzQK-247" style="shape=tableRow;horizontal=0;startSize=0;swimlaneHead=0;swimlaneBody=0;fillColor=none;collapsible=0;dropTarget=0;points=[[0,0.5],[1,0.5]];portConstraint=eastwest;top=0;left=0;right=0;bottom=1;" vertex="1" parent="i0ZZUqnmRl0zCU0rfzQK-240">
          <mxGeometry y="90" width="180" height="30" as="geometry" />
        </mxCell>
        <mxCell id="i0ZZUqnmRl0zCU0rfzQK-248" style="shape=partialRectangle;connectable=0;fillColor=none;top=0;left=0;bottom=0;right=0;fontStyle=1;overflow=hidden;whiteSpace=wrap;html=1;" vertex="1" parent="i0ZZUqnmRl0zCU0rfzQK-247">
          <mxGeometry width="30" height="30" as="geometry">
            <mxRectangle width="30" height="30" as="alternateBounds" />
          </mxGeometry>
        </mxCell>
        <mxCell id="i0ZZUqnmRl0zCU0rfzQK-249" value="Periodo" style="shape=partialRectangle;connectable=0;fillColor=none;top=0;left=0;bottom=0;right=0;align=left;spacingLeft=6;fontStyle=0;overflow=hidden;whiteSpace=wrap;html=1;" vertex="1" parent="i0ZZUqnmRl0zCU0rfzQK-247">
          <mxGeometry x="30" width="150" height="30" as="geometry">
            <mxRectangle width="150" height="30" as="alternateBounds" />
          </mxGeometry>
        </mxCell>
        <mxCell id="i0ZZUqnmRl0zCU0rfzQK-250" value="Realizan proyectos" style="shape=table;startSize=30;container=1;collapsible=1;childLayout=tableLayout;fixedRows=1;rowLines=0;fontStyle=1;align=center;resizeLast=1;html=1;whiteSpace=wrap;" vertex="1" parent="1">
          <mxGeometry x="1579" y="640" width="180" height="120" as="geometry" />
        </mxCell>
        <mxCell id="i0ZZUqnmRl0zCU0rfzQK-251" value="" style="shape=tableRow;horizontal=0;startSize=0;swimlaneHead=0;swimlaneBody=0;fillColor=none;collapsible=0;dropTarget=0;points=[[0,0.5],[1,0.5]];portConstraint=eastwest;top=0;left=0;right=0;bottom=0;html=1;" vertex="1" parent="i0ZZUqnmRl0zCU0rfzQK-250">
          <mxGeometry y="30" width="180" height="30" as="geometry" />
        </mxCell>
        <mxCell id="i0ZZUqnmRl0zCU0rfzQK-252" value="PK,FK1" style="shape=partialRectangle;connectable=0;fillColor=none;top=0;left=0;bottom=0;right=0;fontStyle=1;overflow=hidden;html=1;whiteSpace=wrap;" vertex="1" parent="i0ZZUqnmRl0zCU0rfzQK-251">
          <mxGeometry width="60" height="30" as="geometry">
            <mxRectangle width="60" height="30" as="alternateBounds" />
          </mxGeometry>
        </mxCell>
        <mxCell id="i0ZZUqnmRl0zCU0rfzQK-253" value="DNI" style="shape=partialRectangle;connectable=0;fillColor=none;top=0;left=0;bottom=0;right=0;align=left;spacingLeft=6;fontStyle=5;overflow=hidden;html=1;whiteSpace=wrap;" vertex="1" parent="i0ZZUqnmRl0zCU0rfzQK-251">
          <mxGeometry x="60" width="120" height="30" as="geometry">
            <mxRectangle width="120" height="30" as="alternateBounds" />
          </mxGeometry>
        </mxCell>
        <mxCell id="i0ZZUqnmRl0zCU0rfzQK-254" value="" style="shape=tableRow;horizontal=0;startSize=0;swimlaneHead=0;swimlaneBody=0;fillColor=none;collapsible=0;dropTarget=0;points=[[0,0.5],[1,0.5]];portConstraint=eastwest;top=0;left=0;right=0;bottom=1;html=1;" vertex="1" parent="i0ZZUqnmRl0zCU0rfzQK-250">
          <mxGeometry y="60" width="180" height="30" as="geometry" />
        </mxCell>
        <mxCell id="i0ZZUqnmRl0zCU0rfzQK-255" value="PK,FK2" style="shape=partialRectangle;connectable=0;fillColor=none;top=0;left=0;bottom=0;right=0;fontStyle=1;overflow=hidden;html=1;whiteSpace=wrap;" vertex="1" parent="i0ZZUqnmRl0zCU0rfzQK-254">
          <mxGeometry width="60" height="30" as="geometry">
            <mxRectangle width="60" height="30" as="alternateBounds" />
          </mxGeometry>
        </mxCell>
        <mxCell id="i0ZZUqnmRl0zCU0rfzQK-256" value="CÃ³digo Proyecto" style="shape=partialRectangle;connectable=0;fillColor=none;top=0;left=0;bottom=0;right=0;align=left;spacingLeft=6;fontStyle=5;overflow=hidden;html=1;whiteSpace=wrap;" vertex="1" parent="i0ZZUqnmRl0zCU0rfzQK-254">
          <mxGeometry x="60" width="120" height="30" as="geometry">
            <mxRectangle width="120" height="30" as="alternateBounds" />
          </mxGeometry>
        </mxCell>
        <mxCell id="i0ZZUqnmRl0zCU0rfzQK-257" value="" style="shape=tableRow;horizontal=0;startSize=0;swimlaneHead=0;swimlaneBody=0;fillColor=none;collapsible=0;dropTarget=0;points=[[0,0.5],[1,0.5]];portConstraint=eastwest;top=0;left=0;right=0;bottom=0;html=1;" vertex="1" parent="i0ZZUqnmRl0zCU0rfzQK-250">
          <mxGeometry y="90" width="180" height="30" as="geometry" />
        </mxCell>
        <mxCell id="i0ZZUqnmRl0zCU0rfzQK-258" value="" style="shape=partialRectangle;connectable=0;fillColor=none;top=0;left=0;bottom=0;right=0;editable=1;overflow=hidden;html=1;whiteSpace=wrap;" vertex="1" parent="i0ZZUqnmRl0zCU0rfzQK-257">
          <mxGeometry width="60" height="30" as="geometry">
            <mxRectangle width="60" height="30" as="alternateBounds" />
          </mxGeometry>
        </mxCell>
        <mxCell id="i0ZZUqnmRl0zCU0rfzQK-259" value="Nombre cientÃ­fico" style="shape=partialRectangle;connectable=0;fillColor=none;top=0;left=0;bottom=0;right=0;align=left;spacingLeft=6;overflow=hidden;html=1;whiteSpace=wrap;" vertex="1" parent="i0ZZUqnmRl0zCU0rfzQK-257">
          <mxGeometry x="60" width="120" height="30" as="geometry">
            <mxRectangle width="120" height="30" as="alternateBounds" />
          </mxGeometry>
        </mxCell>
        <mxCell id="i0ZZUqnmRl0zCU0rfzQK-260" style="edgeStyle=orthogonalEdgeStyle;rounded=0;orthogonalLoop=1;jettySize=auto;html=1;entryX=0;entryY=0.5;entryDx=0;entryDy=0;" edge="1" parent="1" source="i0ZZUqnmRl0zCU0rfzQK-149" target="i0ZZUqnmRl0zCU0rfzQK-251">
          <mxGeometry relative="1" as="geometry">
            <Array as="points">
              <mxPoint x="1149" y="430" />
              <mxPoint x="1149" y="740" />
              <mxPoint x="1469" y="740" />
              <mxPoint x="1469" y="685" />
            </Array>
          </mxGeometry>
        </mxCell>
        <mxCell id="i0ZZUqnmRl0zCU0rfzQK-261" value="1" style="text;strokeColor=none;fillColor=none;spacingLeft=4;spacingRight=4;overflow=hidden;rotatable=0;points=[[0,0.5],[1,0.5]];portConstraint=eastwest;fontSize=12;whiteSpace=wrap;html=1;" vertex="1" parent="1">
          <mxGeometry x="1149" y="390" width="40" height="30" as="geometry" />
        </mxCell>
        <mxCell id="i0ZZUqnmRl0zCU0rfzQK-262" value="1" style="text;strokeColor=none;fillColor=none;spacingLeft=4;spacingRight=4;overflow=hidden;rotatable=0;points=[[0,0.5],[1,0.5]];portConstraint=eastwest;fontSize=12;whiteSpace=wrap;html=1;" vertex="1" parent="1">
          <mxGeometry x="1129" y="430" width="40" height="30" as="geometry" />
        </mxCell>
        <mxCell id="i0ZZUqnmRl0zCU0rfzQK-263" value="M" style="text;strokeColor=none;fillColor=none;spacingLeft=4;spacingRight=4;overflow=hidden;rotatable=0;points=[[0,0.5],[1,0.5]];portConstraint=eastwest;fontSize=12;whiteSpace=wrap;html=1;" vertex="1" parent="1">
          <mxGeometry x="1546" y="655" width="40" height="30" as="geometry" />
        </mxCell>
        <mxCell id="i0ZZUqnmRl0zCU0rfzQK-264" style="edgeStyle=orthogonalEdgeStyle;rounded=0;orthogonalLoop=1;jettySize=auto;html=1;entryX=0;entryY=0.5;entryDx=0;entryDy=0;" edge="1" parent="1" source="i0ZZUqnmRl0zCU0rfzQK-254" target="i0ZZUqnmRl0zCU0rfzQK-241">
          <mxGeometry relative="1" as="geometry">
            <Array as="points">
              <mxPoint x="1549" y="715" />
              <mxPoint x="1549" y="875" />
            </Array>
          </mxGeometry>
        </mxCell>
        <mxCell id="i0ZZUqnmRl0zCU0rfzQK-265" value="M" style="text;strokeColor=none;fillColor=none;spacingLeft=4;spacingRight=4;overflow=hidden;rotatable=0;points=[[0,0.5],[1,0.5]];portConstraint=eastwest;fontSize=12;whiteSpace=wrap;html=1;" vertex="1" parent="1">
          <mxGeometry x="1542" y="875" width="40" height="30" as="geometry" />
        </mxCell>
        <mxCell id="i0ZZUqnmRl0zCU0rfzQK-266" value="1" style="text;strokeColor=none;fillColor=none;spacingLeft=4;spacingRight=4;overflow=hidden;rotatable=0;points=[[0,0.5],[1,0.5]];portConstraint=eastwest;fontSize=12;whiteSpace=wrap;html=1;" vertex="1" parent="1">
          <mxGeometry x="1549" y="720" width="40" height="30" as="geometry" />
        </mxCell>
        <mxCell id="i0ZZUqnmRl0zCU0rfzQK-267" style="edgeStyle=orthogonalEdgeStyle;rounded=0;orthogonalLoop=1;jettySize=auto;html=1;entryX=1;entryY=0.5;entryDx=0;entryDy=0;" edge="1" parent="1" source="i0ZZUqnmRl0zCU0rfzQK-219" target="i0ZZUqnmRl0zCU0rfzQK-257">
          <mxGeometry relative="1" as="geometry" />
        </mxCell>
        <mxCell id="i0ZZUqnmRl0zCU0rfzQK-268" value="1" style="text;strokeColor=none;fillColor=none;spacingLeft=4;spacingRight=4;overflow=hidden;rotatable=0;points=[[0,0.5],[1,0.5]];portConstraint=eastwest;fontSize=12;whiteSpace=wrap;html=1;" vertex="1" parent="1">
          <mxGeometry x="1929" y="600" width="40" height="30" as="geometry" />
        </mxCell>
        <mxCell id="i0ZZUqnmRl0zCU0rfzQK-269" value="M" style="text;strokeColor=none;fillColor=none;spacingLeft=4;spacingRight=4;overflow=hidden;rotatable=0;points=[[0,0.5],[1,0.5]];portConstraint=eastwest;fontSize=12;whiteSpace=wrap;html=1;" vertex="1" parent="1">
          <mxGeometry x="1769" y="720" width="40" height="30" as="geometry" />
        </mxCell>
        <mxCell id="i0ZZUqnmRl0zCU0rfzQK-270" value="Residen" style="shape=table;startSize=30;container=1;collapsible=1;childLayout=tableLayout;fixedRows=1;rowLines=0;fontStyle=1;align=center;resizeLast=1;html=1;whiteSpace=wrap;" vertex="1" parent="1">
          <mxGeometry x="1889" y="320" width="180" height="120" as="geometry" />
        </mxCell>
        <mxCell id="i0ZZUqnmRl0zCU0rfzQK-271" value="" style="shape=tableRow;horizontal=0;startSize=0;swimlaneHead=0;swimlaneBody=0;fillColor=none;collapsible=0;dropTarget=0;points=[[0,0.5],[1,0.5]];portConstraint=eastwest;top=0;left=0;right=0;bottom=0;html=1;" vertex="1" parent="i0ZZUqnmRl0zCU0rfzQK-270">
          <mxGeometry y="30" width="180" height="30" as="geometry" />
        </mxCell>
        <mxCell id="i0ZZUqnmRl0zCU0rfzQK-272" value="PK,FK1" style="shape=partialRectangle;connectable=0;fillColor=none;top=0;left=0;bottom=0;right=0;fontStyle=1;overflow=hidden;html=1;whiteSpace=wrap;" vertex="1" parent="i0ZZUqnmRl0zCU0rfzQK-271">
          <mxGeometry width="60" height="30" as="geometry">
            <mxRectangle width="60" height="30" as="alternateBounds" />
          </mxGeometry>
        </mxCell>
        <mxCell id="i0ZZUqnmRl0zCU0rfzQK-273" value="Nombre Areas" style="shape=partialRectangle;connectable=0;fillColor=none;top=0;left=0;bottom=0;right=0;align=left;spacingLeft=6;fontStyle=5;overflow=hidden;html=1;whiteSpace=wrap;" vertex="1" parent="i0ZZUqnmRl0zCU0rfzQK-271">
          <mxGeometry x="60" width="120" height="30" as="geometry">
            <mxRectangle width="120" height="30" as="alternateBounds" />
          </mxGeometry>
        </mxCell>
        <mxCell id="i0ZZUqnmRl0zCU0rfzQK-274" value="" style="shape=tableRow;horizontal=0;startSize=0;swimlaneHead=0;swimlaneBody=0;fillColor=none;collapsible=0;dropTarget=0;points=[[0,0.5],[1,0.5]];portConstraint=eastwest;top=0;left=0;right=0;bottom=1;html=1;" vertex="1" parent="i0ZZUqnmRl0zCU0rfzQK-270">
          <mxGeometry y="60" width="180" height="30" as="geometry" />
        </mxCell>
        <mxCell id="i0ZZUqnmRl0zCU0rfzQK-275" value="PK,FK2" style="shape=partialRectangle;connectable=0;fillColor=none;top=0;left=0;bottom=0;right=0;fontStyle=1;overflow=hidden;html=1;whiteSpace=wrap;" vertex="1" parent="i0ZZUqnmRl0zCU0rfzQK-274">
          <mxGeometry width="60" height="30" as="geometry">
            <mxRectangle width="60" height="30" as="alternateBounds" />
          </mxGeometry>
        </mxCell>
        <mxCell id="i0ZZUqnmRl0zCU0rfzQK-276" value="Nombre CientÃ­fico" style="shape=partialRectangle;connectable=0;fillColor=none;top=0;left=0;bottom=0;right=0;align=left;spacingLeft=6;fontStyle=5;overflow=hidden;html=1;whiteSpace=wrap;" vertex="1" parent="i0ZZUqnmRl0zCU0rfzQK-274">
          <mxGeometry x="60" width="120" height="30" as="geometry">
            <mxRectangle width="120" height="30" as="alternateBounds" />
          </mxGeometry>
        </mxCell>
        <mxCell id="i0ZZUqnmRl0zCU0rfzQK-277" value="" style="shape=tableRow;horizontal=0;startSize=0;swimlaneHead=0;swimlaneBody=0;fillColor=none;collapsible=0;dropTarget=0;points=[[0,0.5],[1,0.5]];portConstraint=eastwest;top=0;left=0;right=0;bottom=0;html=1;" vertex="1" parent="i0ZZUqnmRl0zCU0rfzQK-270">
          <mxGeometry y="90" width="180" height="30" as="geometry" />
        </mxCell>
        <mxCell id="i0ZZUqnmRl0zCU0rfzQK-278" value="" style="shape=partialRectangle;connectable=0;fillColor=none;top=0;left=0;bottom=0;right=0;editable=1;overflow=hidden;html=1;whiteSpace=wrap;" vertex="1" parent="i0ZZUqnmRl0zCU0rfzQK-277">
          <mxGeometry width="60" height="30" as="geometry">
            <mxRectangle width="60" height="30" as="alternateBounds" />
          </mxGeometry>
        </mxCell>
        <mxCell id="i0ZZUqnmRl0zCU0rfzQK-279" value="NÃºm. inventario" style="shape=partialRectangle;connectable=0;fillColor=none;top=0;left=0;bottom=0;right=0;align=left;spacingLeft=6;overflow=hidden;html=1;whiteSpace=wrap;" vertex="1" parent="i0ZZUqnmRl0zCU0rfzQK-277">
          <mxGeometry x="60" width="120" height="30" as="geometry">
            <mxRectangle width="120" height="30" as="alternateBounds" />
          </mxGeometry>
        </mxCell>
        <mxCell id="i0ZZUqnmRl0zCU0rfzQK-280" style="edgeStyle=orthogonalEdgeStyle;rounded=0;orthogonalLoop=1;jettySize=auto;html=1;entryX=0;entryY=0.5;entryDx=0;entryDy=0;exitX=-0.003;exitY=0.283;exitDx=0;exitDy=0;exitPerimeter=0;" edge="1" parent="1" source="i0ZZUqnmRl0zCU0rfzQK-219" target="i0ZZUqnmRl0zCU0rfzQK-274">
          <mxGeometry relative="1" as="geometry">
            <mxPoint x="1959" y="605" as="sourcePoint" />
            <mxPoint x="1769" y="755" as="targetPoint" />
          </mxGeometry>
        </mxCell>
        <mxCell id="i0ZZUqnmRl0zCU0rfzQK-281" value="M" style="text;strokeColor=none;fillColor=none;spacingLeft=4;spacingRight=4;overflow=hidden;rotatable=0;points=[[0,0.5],[1,0.5]];portConstraint=eastwest;fontSize=12;whiteSpace=wrap;html=1;" vertex="1" parent="1">
          <mxGeometry x="1849" y="400" width="40" height="30" as="geometry" />
        </mxCell>
        <mxCell id="i0ZZUqnmRl0zCU0rfzQK-282" style="edgeStyle=orthogonalEdgeStyle;rounded=0;orthogonalLoop=1;jettySize=auto;html=1;entryX=0;entryY=0.5;entryDx=0;entryDy=0;exitX=0;exitY=0.5;exitDx=0;exitDy=0;" edge="1" parent="1" source="i0ZZUqnmRl0zCU0rfzQK-193" target="i0ZZUqnmRl0zCU0rfzQK-271">
          <mxGeometry relative="1" as="geometry">
            <mxPoint x="1958" y="598" as="sourcePoint" />
            <mxPoint x="1899" y="405" as="targetPoint" />
            <Array as="points">
              <mxPoint x="1569" y="355" />
              <mxPoint x="1569" y="390" />
              <mxPoint x="1809" y="390" />
              <mxPoint x="1809" y="365" />
            </Array>
          </mxGeometry>
        </mxCell>
        <mxCell id="i0ZZUqnmRl0zCU0rfzQK-283" value="1" style="text;strokeColor=none;fillColor=none;spacingLeft=4;spacingRight=4;overflow=hidden;rotatable=0;points=[[0,0.5],[1,0.5]];portConstraint=eastwest;fontSize=12;whiteSpace=wrap;html=1;" vertex="1" parent="1">
          <mxGeometry x="1546" y="360" width="40" height="30" as="geometry" />
        </mxCell>
        <mxCell id="i0ZZUqnmRl0zCU0rfzQK-284" value="M" style="text;strokeColor=none;fillColor=none;spacingLeft=4;spacingRight=4;overflow=hidden;rotatable=0;points=[[0,0.5],[1,0.5]];portConstraint=eastwest;fontSize=12;whiteSpace=wrap;html=1;" vertex="1" parent="1">
          <mxGeometry x="1859" y="330" width="40" height="30" as="geometry" />
        </mxCell>
        <mxCell id="i0ZZUqnmRl0zCU0rfzQK-285" value="Mantenimiento" style="shape=table;startSize=30;container=1;collapsible=1;childLayout=tableLayout;fixedRows=1;rowLines=0;fontStyle=1;align=center;resizeLast=1;html=1;whiteSpace=wrap;" vertex="1" parent="1">
          <mxGeometry x="1529" y="460" width="180" height="90" as="geometry" />
        </mxCell>
        <mxCell id="i0ZZUqnmRl0zCU0rfzQK-286" value="" style="shape=tableRow;horizontal=0;startSize=0;swimlaneHead=0;swimlaneBody=0;fillColor=none;collapsible=0;dropTarget=0;points=[[0,0.5],[1,0.5]];portConstraint=eastwest;top=0;left=0;right=0;bottom=0;html=1;" vertex="1" parent="i0ZZUqnmRl0zCU0rfzQK-285">
          <mxGeometry y="30" width="180" height="30" as="geometry" />
        </mxCell>
        <mxCell id="i0ZZUqnmRl0zCU0rfzQK-287" value="PK,FK1" style="shape=partialRectangle;connectable=0;fillColor=none;top=0;left=0;bottom=0;right=0;fontStyle=1;overflow=hidden;html=1;whiteSpace=wrap;" vertex="1" parent="i0ZZUqnmRl0zCU0rfzQK-286">
          <mxGeometry width="60" height="30" as="geometry">
            <mxRectangle width="60" height="30" as="alternateBounds" />
          </mxGeometry>
        </mxCell>
        <mxCell id="i0ZZUqnmRl0zCU0rfzQK-288" value="DNI" style="shape=partialRectangle;connectable=0;fillColor=none;top=0;left=0;bottom=0;right=0;align=left;spacingLeft=6;fontStyle=5;overflow=hidden;html=1;whiteSpace=wrap;" vertex="1" parent="i0ZZUqnmRl0zCU0rfzQK-286">
          <mxGeometry x="60" width="120" height="30" as="geometry">
            <mxRectangle width="120" height="30" as="alternateBounds" />
          </mxGeometry>
        </mxCell>
        <mxCell id="i0ZZUqnmRl0zCU0rfzQK-289" value="" style="shape=tableRow;horizontal=0;startSize=0;swimlaneHead=0;swimlaneBody=0;fillColor=none;collapsible=0;dropTarget=0;points=[[0,0.5],[1,0.5]];portConstraint=eastwest;top=0;left=0;right=0;bottom=1;html=1;" vertex="1" parent="i0ZZUqnmRl0zCU0rfzQK-285">
          <mxGeometry y="60" width="180" height="30" as="geometry" />
        </mxCell>
        <mxCell id="i0ZZUqnmRl0zCU0rfzQK-290" value="PK,FK2" style="shape=partialRectangle;connectable=0;fillColor=none;top=0;left=0;bottom=0;right=0;fontStyle=1;overflow=hidden;html=1;whiteSpace=wrap;" vertex="1" parent="i0ZZUqnmRl0zCU0rfzQK-289">
          <mxGeometry width="60" height="30" as="geometry">
            <mxRectangle width="60" height="30" as="alternateBounds" />
          </mxGeometry>
        </mxCell>
        <mxCell id="i0ZZUqnmRl0zCU0rfzQK-291" value="Nombre Areas" style="shape=partialRectangle;connectable=0;fillColor=none;top=0;left=0;bottom=0;right=0;align=left;spacingLeft=6;fontStyle=5;overflow=hidden;html=1;whiteSpace=wrap;" vertex="1" parent="i0ZZUqnmRl0zCU0rfzQK-289">
          <mxGeometry x="60" width="120" height="30" as="geometry">
            <mxRectangle width="120" height="30" as="alternateBounds" />
          </mxGeometry>
        </mxCell>
        <mxCell id="i0ZZUqnmRl0zCU0rfzQK-292" style="edgeStyle=orthogonalEdgeStyle;rounded=0;orthogonalLoop=1;jettySize=auto;html=1;entryX=0;entryY=0.5;entryDx=0;entryDy=0;" edge="1" parent="1" source="i0ZZUqnmRl0zCU0rfzQK-149" target="i0ZZUqnmRl0zCU0rfzQK-286">
          <mxGeometry relative="1" as="geometry">
            <Array as="points">
              <mxPoint x="1446" y="430" />
              <mxPoint x="1446" y="505" />
            </Array>
          </mxGeometry>
        </mxCell>
        <mxCell id="i0ZZUqnmRl0zCU0rfzQK-293" value="1" style="text;strokeColor=none;fillColor=none;spacingLeft=4;spacingRight=4;overflow=hidden;rotatable=0;points=[[0,0.5],[1,0.5]];portConstraint=eastwest;fontSize=12;whiteSpace=wrap;html=1;" vertex="1" parent="1">
          <mxGeometry x="1382" y="425" width="40" height="30" as="geometry" />
        </mxCell>
        <mxCell id="i0ZZUqnmRl0zCU0rfzQK-294" value="M" style="text;strokeColor=none;fillColor=none;spacingLeft=4;spacingRight=4;overflow=hidden;rotatable=0;points=[[0,0.5],[1,0.5]];portConstraint=eastwest;fontSize=12;whiteSpace=wrap;html=1;" vertex="1" parent="1">
          <mxGeometry x="1502" y="480" width="40" height="30" as="geometry" />
        </mxCell>
        <mxCell id="i0ZZUqnmRl0zCU0rfzQK-295" style="edgeStyle=orthogonalEdgeStyle;rounded=0;orthogonalLoop=1;jettySize=auto;html=1;entryX=1;entryY=0.5;entryDx=0;entryDy=0;" edge="1" parent="1" source="i0ZZUqnmRl0zCU0rfzQK-190" target="i0ZZUqnmRl0zCU0rfzQK-289">
          <mxGeometry relative="1" as="geometry">
            <Array as="points">
              <mxPoint x="1539" y="330" />
              <mxPoint x="1539" y="430" />
              <mxPoint x="1729" y="430" />
              <mxPoint x="1729" y="535" />
            </Array>
          </mxGeometry>
        </mxCell>
        <mxCell id="i0ZZUqnmRl0zCU0rfzQK-296" value="1" style="text;strokeColor=none;fillColor=none;spacingLeft=4;spacingRight=4;overflow=hidden;rotatable=0;points=[[0,0.5],[1,0.5]];portConstraint=eastwest;fontSize=12;whiteSpace=wrap;html=1;" vertex="1" parent="1">
          <mxGeometry x="1519" y="330" width="40" height="30" as="geometry" />
        </mxCell>
        <mxCell id="i0ZZUqnmRl0zCU0rfzQK-297" value="M" style="text;strokeColor=none;fillColor=none;spacingLeft=4;spacingRight=4;overflow=hidden;rotatable=0;points=[[0,0.5],[1,0.5]];portConstraint=eastwest;fontSize=12;whiteSpace=wrap;html=1;" vertex="1" parent="1">
          <mxGeometry x="1709" y="540" width="40" height="30" as="geometry" />
        </mxCell>
      </root>
    </mxGraphModel>
  </diagram>
</mxfile>
